<mxfile host="65bd71144e">
    <diagram id="CGE-V-YyImQBMw3J6Rf1" name="Page-1">
        <mxGraphModel dx="2093" dy="999" grid="0" gridSize="13" guides="1" tooltips="1" connect="1" arrows="1" fold="1" page="0" pageScale="1" pageWidth="827" pageHeight="1169" math="0" shadow="0">
            <root>
                <mxCell id="0"/>
                <mxCell id="1" parent="0"/>
                <mxCell id="2" value="Customer" style="whiteSpace=wrap;html=1;align=center;rounded=1;" parent="1" vertex="1">
                    <mxGeometry x="-218" y="716" width="100" height="40" as="geometry"/>
                </mxCell>
                <mxCell id="238" style="edgeStyle=none;html=1;entryX=0.5;entryY=1;entryDx=0;entryDy=0;strokeColor=default;fontSize=10;endArrow=none;endFill=0;exitX=0.5;exitY=0;exitDx=0;exitDy=0;" parent="1" source="3" target="237" edge="1">
                    <mxGeometry relative="1" as="geometry">
                        <mxPoint x="312" y="360" as="sourcePoint"/>
                    </mxGeometry>
                </mxCell>
                <mxCell id="3" value="Product" style="whiteSpace=wrap;html=1;align=center;rounded=1;arcSize=28;" parent="1" vertex="1">
                    <mxGeometry x="253" y="390" width="100" height="40" as="geometry"/>
                </mxCell>
                <mxCell id="179" style="edgeStyle=none;html=1;exitX=0.5;exitY=1;exitDx=0;exitDy=0;entryX=1;entryY=0.5;entryDx=0;entryDy=0;strokeColor=default;endArrow=none;endFill=0;" parent="1" target="177" edge="1">
                    <mxGeometry relative="1" as="geometry">
                        <mxPoint x="303" y="768" as="sourcePoint"/>
                    </mxGeometry>
                </mxCell>
                <mxCell id="314" style="edgeStyle=none;html=1;exitX=0.5;exitY=1;exitDx=0;exitDy=0;entryX=0;entryY=0.5;entryDx=0;entryDy=0;endArrow=none;endFill=0;" parent="1" target="311" edge="1">
                    <mxGeometry relative="1" as="geometry">
                        <mxPoint x="303" y="768" as="sourcePoint"/>
                    </mxGeometry>
                </mxCell>
                <mxCell id="6" value="Transaction" style="whiteSpace=wrap;html=1;align=center;rounded=1;" parent="1" vertex="1">
                    <mxGeometry x="777" y="729" width="100" height="40" as="geometry"/>
                </mxCell>
                <mxCell id="214" style="edgeStyle=none;html=1;exitX=0.5;exitY=0;exitDx=0;exitDy=0;entryX=0.5;entryY=1;entryDx=0;entryDy=0;strokeColor=default;endArrow=none;endFill=0;" parent="1" source="7" target="211" edge="1">
                    <mxGeometry relative="1" as="geometry"/>
                </mxCell>
                <mxCell id="7" value="Supplier" style="whiteSpace=wrap;html=1;align=center;rounded=1;" parent="1" vertex="1">
                    <mxGeometry x="253" y="69" width="100" height="40" as="geometry"/>
                </mxCell>
                <mxCell id="8" value="Category" style="whiteSpace=wrap;html=1;align=center;rounded=1;" parent="1" vertex="1">
                    <mxGeometry x="852.9" y="390" width="100" height="40" as="geometry"/>
                </mxCell>
                <mxCell id="9" value="Ad" style="whiteSpace=wrap;html=1;align=center;rounded=1;" parent="1" vertex="1">
                    <mxGeometry x="-231" y="390.5" width="100" height="40" as="geometry"/>
                </mxCell>
                <mxCell id="10" value="belongs to" style="shape=rhombus;perimeter=rhombusPerimeter;whiteSpace=wrap;html=1;align=center;rounded=1;" parent="1" vertex="1">
                    <mxGeometry x="579" y="380" width="120" height="60" as="geometry"/>
                </mxCell>
                <mxCell id="21" value="" style="endArrow=none;html=1;rounded=1;entryX=0;entryY=0.5;entryDx=0;entryDy=0;exitX=0.953;exitY=0.499;exitDx=0;exitDy=0;exitPerimeter=0;" parent="1" source="10" target="8" edge="1">
                    <mxGeometry relative="1" as="geometry">
                        <mxPoint x="793" y="344" as="sourcePoint"/>
                        <mxPoint x="950" y="440" as="targetPoint"/>
                    </mxGeometry>
                </mxCell>
                <mxCell id="22" value="1" style="resizable=0;html=1;align=right;verticalAlign=bottom;rounded=1;" parent="21" connectable="0" vertex="1">
                    <mxGeometry x="1" relative="1" as="geometry">
                        <mxPoint x="-5" as="offset"/>
                    </mxGeometry>
                </mxCell>
                <mxCell id="23" value="" style="endArrow=none;html=1;rounded=1;exitX=0;exitY=0.5;exitDx=0;exitDy=0;entryX=1;entryY=0.5;entryDx=0;entryDy=0;" parent="1" source="10" target="3" edge="1">
                    <mxGeometry relative="1" as="geometry">
                        <mxPoint x="403" y="422" as="sourcePoint"/>
                        <mxPoint x="364" y="422" as="targetPoint"/>
                    </mxGeometry>
                </mxCell>
                <mxCell id="24" value="N" style="resizable=0;html=1;align=right;verticalAlign=bottom;rounded=1;" parent="23" connectable="0" vertex="1">
                    <mxGeometry x="1" relative="1" as="geometry">
                        <mxPoint x="16" as="offset"/>
                    </mxGeometry>
                </mxCell>
                <mxCell id="25" value="cat_id" style="ellipse;whiteSpace=wrap;html=1;align=center;fontStyle=4;rounded=1;fillColor=#60a917;fontColor=#ffffff;strokeColor=#2D7600;" parent="1" vertex="1">
                    <mxGeometry x="746" y="336.5" width="100" height="40" as="geometry"/>
                </mxCell>
                <mxCell id="28" value="" style="endArrow=none;html=1;rounded=0;entryX=0.5;entryY=0;entryDx=0;entryDy=0;exitX=1;exitY=0.5;exitDx=0;exitDy=0;" parent="1" source="25" target="8" edge="1">
                    <mxGeometry relative="1" as="geometry">
                        <mxPoint x="590.9" y="474" as="sourcePoint"/>
                        <mxPoint x="750.9" y="474" as="targetPoint"/>
                    </mxGeometry>
                </mxCell>
                <mxCell id="32" value="&lt;u&gt;cat_id&lt;/u&gt;" style="ellipse;whiteSpace=wrap;html=1;align=center;rounded=1;fillColor=#a20025;fontColor=#ffffff;strokeColor=#6F0000;" parent="1" vertex="1">
                    <mxGeometry x="192" y="237" width="100" height="40" as="geometry"/>
                </mxCell>
                <mxCell id="35" value="name" style="ellipse;whiteSpace=wrap;html=1;align=center;fontStyle=0;rounded=1;fillColor=#1ba1e2;fontColor=#ffffff;strokeColor=#006EAF;" parent="1" vertex="1">
                    <mxGeometry x="403" y="263" width="100" height="40" as="geometry"/>
                </mxCell>
                <mxCell id="36" value="" style="endArrow=none;html=1;rounded=0;exitX=0;exitY=1;exitDx=0;exitDy=0;entryX=0.5;entryY=0;entryDx=0;entryDy=0;" parent="1" source="35" target="3" edge="1">
                    <mxGeometry relative="1" as="geometry">
                        <mxPoint x="346" y="422" as="sourcePoint"/>
                        <mxPoint x="219" y="410" as="targetPoint"/>
                    </mxGeometry>
                </mxCell>
                <mxCell id="41" value="" style="endArrow=none;html=1;rounded=0;exitX=0.5;exitY=1;exitDx=0;exitDy=0;entryX=0.5;entryY=0;entryDx=0;entryDy=0;" parent="1" source="32" target="3" edge="1">
                    <mxGeometry relative="1" as="geometry">
                        <mxPoint x="327" y="422" as="sourcePoint"/>
                        <mxPoint x="219" y="410" as="targetPoint"/>
                    </mxGeometry>
                </mxCell>
                <mxCell id="393" style="edgeStyle=none;html=1;endArrow=none;endFill=0;" edge="1" parent="1" source="52" target="317">
                    <mxGeometry relative="1" as="geometry"/>
                </mxCell>
                <mxCell id="52" value="product_id" style="ellipse;whiteSpace=wrap;html=1;align=center;fontStyle=0;rounded=1;fillColor=#a20025;fontColor=#ffffff;strokeColor=#6F0000;" parent="1" vertex="1">
                    <mxGeometry x="334" y="626" width="100" height="40" as="geometry"/>
                </mxCell>
                <mxCell id="60" value="&lt;div&gt;orders_id&lt;/div&gt;" style="ellipse;whiteSpace=wrap;html=1;align=center;fontStyle=4;rounded=1;fillColor=#60a917;fontColor=#ffffff;strokeColor=#2D7600;" parent="1" vertex="1">
                    <mxGeometry x="363" y="779" width="100" height="40" as="geometry"/>
                </mxCell>
                <mxCell id="61" value="" style="endArrow=none;html=1;rounded=0;exitX=0.5;exitY=1;exitDx=0;exitDy=0;entryX=0;entryY=0.5;entryDx=0;entryDy=0;" parent="1" target="60" edge="1">
                    <mxGeometry relative="1" as="geometry">
                        <mxPoint x="303" y="768" as="sourcePoint"/>
                        <mxPoint x="459" y="850" as="targetPoint"/>
                    </mxGeometry>
                </mxCell>
                <mxCell id="62" value="" style="endArrow=none;html=1;rounded=0;entryX=0;entryY=0;entryDx=0;entryDy=0;exitX=0.5;exitY=1;exitDx=0;exitDy=0;" parent="1" target="64" edge="1">
                    <mxGeometry relative="1" as="geometry">
                        <mxPoint x="303" y="768" as="sourcePoint"/>
                        <mxPoint x="1168" y="798.67" as="targetPoint"/>
                    </mxGeometry>
                </mxCell>
                <mxCell id="64" value="&lt;div&gt;customer_id&lt;/div&gt;" style="ellipse;whiteSpace=wrap;html=1;align=center;fontStyle=4;rounded=1;fillColor=#a20025;fontColor=#ffffff;strokeColor=#6F0000;" parent="1" vertex="1">
                    <mxGeometry x="322" y="900" width="100" height="40" as="geometry"/>
                </mxCell>
                <mxCell id="66" value="supplied by" style="shape=rhombus;perimeter=rhombusPerimeter;whiteSpace=wrap;html=1;align=center;rounded=1;" parent="1" vertex="1">
                    <mxGeometry x="243" y="154" width="120" height="60" as="geometry"/>
                </mxCell>
                <mxCell id="67" value="" style="endArrow=none;html=1;rounded=1;entryX=0.5;entryY=1;entryDx=0;entryDy=0;exitX=0.5;exitY=0;exitDx=0;exitDy=0;" parent="1" source="66" target="7" edge="1">
                    <mxGeometry relative="1" as="geometry">
                        <mxPoint x="515" y="164" as="sourcePoint"/>
                        <mxPoint x="564.6399999999999" y="230" as="targetPoint"/>
                    </mxGeometry>
                </mxCell>
                <mxCell id="68" value="1" style="resizable=0;html=1;align=right;verticalAlign=bottom;rounded=1;" parent="67" connectable="0" vertex="1">
                    <mxGeometry x="1" relative="1" as="geometry">
                        <mxPoint x="-5" y="20" as="offset"/>
                    </mxGeometry>
                </mxCell>
                <mxCell id="69" value="" style="endArrow=none;html=1;rounded=1;exitX=0.5;exitY=1;exitDx=0;exitDy=0;entryX=0.5;entryY=0;entryDx=0;entryDy=0;" parent="1" source="66" target="3" edge="1">
                    <mxGeometry relative="1" as="geometry">
                        <mxPoint x="385" y="313" as="sourcePoint"/>
                        <mxPoint x="335" y="301" as="targetPoint"/>
                    </mxGeometry>
                </mxCell>
                <mxCell id="70" value="N" style="resizable=0;html=1;align=right;verticalAlign=bottom;rounded=1;" parent="69" connectable="0" vertex="1">
                    <mxGeometry x="1" relative="1" as="geometry">
                        <mxPoint x="-4" y="-25" as="offset"/>
                    </mxGeometry>
                </mxCell>
                <mxCell id="71" value="supplier_id" style="ellipse;whiteSpace=wrap;html=1;align=center;fontStyle=4;rounded=1;fillColor=#60a917;fontColor=#ffffff;strokeColor=#2D7600;" parent="1" vertex="1">
                    <mxGeometry x="77" y="90" width="100" height="40" as="geometry"/>
                </mxCell>
                <mxCell id="72" value="" style="endArrow=none;html=1;rounded=0;entryX=1;entryY=0.5;entryDx=0;entryDy=0;exitX=0;exitY=0.75;exitDx=0;exitDy=0;" parent="1" source="7" target="71" edge="1">
                    <mxGeometry relative="1" as="geometry">
                        <mxPoint x="373" y="88" as="sourcePoint"/>
                        <mxPoint x="331" y="98" as="targetPoint"/>
                    </mxGeometry>
                </mxCell>
                <mxCell id="73" value="Each product has&lt;br&gt; a unique supplier" style="text;html=1;align=center;verticalAlign=middle;resizable=0;points=[];autosize=1;strokeColor=none;fillColor=none;" parent="1" vertex="1">
                    <mxGeometry x="112" y="163.5" width="114" height="41" as="geometry"/>
                </mxCell>
                <mxCell id="75" value="" style="endArrow=none;html=1;rounded=0;exitX=0.5;exitY=0;exitDx=0;exitDy=0;entryX=0.582;entryY=1.02;entryDx=0;entryDy=0;entryPerimeter=0;" parent="1" source="2" target="76" edge="1">
                    <mxGeometry relative="1" as="geometry">
                        <mxPoint x="-297" y="782.6699999999998" as="sourcePoint"/>
                        <mxPoint x="-297" y="820.3399999999999" as="targetPoint"/>
                    </mxGeometry>
                </mxCell>
                <mxCell id="76" value="&lt;div&gt;customer_id&lt;/div&gt;" style="ellipse;whiteSpace=wrap;html=1;align=center;fontStyle=4;rounded=1;fillColor=#60a917;fontColor=#ffffff;strokeColor=#2D7600;" parent="1" vertex="1">
                    <mxGeometry x="-224" y="512" width="100" height="40" as="geometry"/>
                </mxCell>
                <mxCell id="77" value="Each product has&lt;br&gt; a unique category" style="text;html=1;align=center;verticalAlign=middle;resizable=0;points=[];autosize=1;strokeColor=none;fillColor=none;" parent="1" vertex="1">
                    <mxGeometry x="585" y="336" width="115" height="41" as="geometry"/>
                </mxCell>
                <mxCell id="78" value="" style="endArrow=none;html=1;rounded=0;entryX=1;entryY=0.5;entryDx=0;entryDy=0;exitX=0;exitY=0.5;exitDx=0;exitDy=0;" parent="1" source="317" target="2" edge="1">
                    <mxGeometry relative="1" as="geometry">
                        <mxPoint x="30" y="748" as="sourcePoint"/>
                        <mxPoint x="155" y="548.67" as="targetPoint"/>
                    </mxGeometry>
                </mxCell>
                <mxCell id="79" value="N" style="resizable=0;html=1;align=right;verticalAlign=bottom;" parent="78" connectable="0" vertex="1">
                    <mxGeometry x="1" relative="1" as="geometry">
                        <mxPoint x="16" as="offset"/>
                    </mxGeometry>
                </mxCell>
                <mxCell id="82" value="" style="endArrow=none;html=1;rounded=0;entryX=0.5;entryY=1;entryDx=0;entryDy=0;exitX=0.5;exitY=0;exitDx=0;exitDy=0;" parent="1" source="317" target="3" edge="1">
                    <mxGeometry relative="1" as="geometry">
                        <mxPoint x="303" y="510" as="sourcePoint"/>
                        <mxPoint x="340" y="582" as="targetPoint"/>
                    </mxGeometry>
                </mxCell>
                <mxCell id="83" value="N" style="resizable=0;html=1;align=right;verticalAlign=bottom;" parent="82" connectable="0" vertex="1">
                    <mxGeometry x="1" relative="1" as="geometry">
                        <mxPoint x="-3" y="23" as="offset"/>
                    </mxGeometry>
                </mxCell>
                <mxCell id="86" value="&lt;div&gt;An order can have&lt;/div&gt;&lt;div&gt;many products and a&lt;/div&gt;&lt;div&gt;product can be in multiple&lt;/div&gt;&lt;div&gt;orders&lt;br&gt;&lt;/div&gt;" style="text;html=1;align=center;verticalAlign=middle;resizable=0;points=[];autosize=1;strokeColor=none;fillColor=none;" parent="1" vertex="1">
                    <mxGeometry x="370" y="537" width="159" height="70" as="geometry"/>
                </mxCell>
                <mxCell id="87" value="supplier_id" style="ellipse;whiteSpace=wrap;html=1;align=center;fontStyle=4;rounded=1;fillColor=#a20025;fontColor=#ffffff;strokeColor=#6F0000;" parent="1" vertex="1">
                    <mxGeometry x="119" y="288" width="100" height="40" as="geometry"/>
                </mxCell>
                <mxCell id="88" value="" style="endArrow=none;html=1;rounded=0;exitX=1;exitY=0.5;exitDx=0;exitDy=0;entryX=0.5;entryY=0;entryDx=0;entryDy=0;" parent="1" source="87" target="3" edge="1">
                    <mxGeometry relative="1" as="geometry">
                        <mxPoint x="346" y="546" as="sourcePoint"/>
                        <mxPoint x="253" y="534" as="targetPoint"/>
                    </mxGeometry>
                </mxCell>
                <mxCell id="402" style="edgeStyle=none;html=1;entryX=0.401;entryY=0.037;entryDx=0;entryDy=0;entryPerimeter=0;endArrow=none;endFill=0;" edge="1" parent="1" source="94" target="6">
                    <mxGeometry relative="1" as="geometry"/>
                </mxCell>
                <mxCell id="94" value="transaction_id" style="ellipse;whiteSpace=wrap;html=1;align=center;fontStyle=4;rounded=1;fillColor=#60a917;fontColor=#ffffff;strokeColor=#2D7600;" parent="1" vertex="1">
                    <mxGeometry x="648" y="628" width="101" height="40" as="geometry"/>
                </mxCell>
                <mxCell id="99" value="&lt;div&gt;1 order can be paid &lt;br&gt;by many payments (installments).&lt;br&gt;Assumption: the customer who&lt;br&gt;made the order is the one who pays&lt;/div&gt;" style="text;html=1;align=center;verticalAlign=middle;resizable=0;points=[];autosize=1;strokeColor=none;fillColor=none;" parent="1" vertex="1">
                    <mxGeometry x="420" y="645" width="209" height="70" as="geometry"/>
                </mxCell>
                <mxCell id="108" value="&lt;u&gt;ad_id&lt;/u&gt;" style="ellipse;whiteSpace=wrap;html=1;align=center;rounded=1;fillColor=#60a917;fontColor=#ffffff;strokeColor=#2D7600;" parent="1" vertex="1">
                    <mxGeometry x="-301" y="328" width="100" height="40" as="geometry"/>
                </mxCell>
                <mxCell id="111" value="" style="endArrow=none;html=1;rounded=0;exitX=1;exitY=1;exitDx=0;exitDy=0;entryX=0.5;entryY=0;entryDx=0;entryDy=0;" parent="1" source="108" target="9" edge="1">
                    <mxGeometry relative="1" as="geometry">
                        <mxPoint x="-99" y="362" as="sourcePoint"/>
                        <mxPoint x="-173" y="349.9999999999999" as="targetPoint"/>
                    </mxGeometry>
                </mxCell>
                <mxCell id="114" value="has" style="shape=rhombus;perimeter=rhombusPerimeter;whiteSpace=wrap;html=1;align=center;rounded=1;" parent="1" vertex="1">
                    <mxGeometry x="-48" y="380" width="120" height="60" as="geometry"/>
                </mxCell>
                <mxCell id="119" value="" style="endArrow=none;html=1;rounded=0;entryX=0;entryY=0.5;entryDx=0;entryDy=0;exitX=1;exitY=0.5;exitDx=0;exitDy=0;" parent="1" source="114" target="3" edge="1">
                    <mxGeometry relative="1" as="geometry">
                        <mxPoint x="102" y="378" as="sourcePoint"/>
                        <mxPoint x="262" y="378" as="targetPoint"/>
                    </mxGeometry>
                </mxCell>
                <mxCell id="120" value="1" style="resizable=0;html=1;align=right;verticalAlign=bottom;" parent="119" connectable="0" vertex="1">
                    <mxGeometry x="1" relative="1" as="geometry">
                        <mxPoint x="-14" as="offset"/>
                    </mxGeometry>
                </mxCell>
                <mxCell id="121" value="" style="endArrow=none;html=1;rounded=0;entryX=1;entryY=0.5;entryDx=0;entryDy=0;exitX=0;exitY=0.5;exitDx=0;exitDy=0;" parent="1" source="114" target="9" edge="1">
                    <mxGeometry relative="1" as="geometry">
                        <mxPoint x="-57" y="409.9999999999998" as="sourcePoint"/>
                        <mxPoint x="156" y="423.0000000000001" as="targetPoint"/>
                    </mxGeometry>
                </mxCell>
                <mxCell id="122" value="1" style="resizable=0;html=1;align=right;verticalAlign=bottom;" parent="121" connectable="0" vertex="1">
                    <mxGeometry x="1" relative="1" as="geometry">
                        <mxPoint x="13" as="offset"/>
                    </mxGeometry>
                </mxCell>
                <mxCell id="123" value="One product can &lt;br&gt;have one ad" style="text;html=1;align=center;verticalAlign=middle;resizable=0;points=[];autosize=1;strokeColor=none;fillColor=none;" parent="1" vertex="1">
                    <mxGeometry x="-39" y="336.5" width="108" height="41" as="geometry"/>
                </mxCell>
                <mxCell id="141" value="product_id" style="ellipse;whiteSpace=wrap;html=1;align=center;fontStyle=4;rounded=1;fillColor=#a20025;fontColor=#ffffff;strokeColor=#6F0000;" parent="1" vertex="1">
                    <mxGeometry x="-230.5" y="280" width="100" height="40" as="geometry"/>
                </mxCell>
                <mxCell id="142" value="" style="endArrow=none;html=1;rounded=0;entryX=0.5;entryY=1;entryDx=0;entryDy=0;exitX=0.5;exitY=0;exitDx=0;exitDy=0;" parent="1" source="9" target="141" edge="1">
                    <mxGeometry relative="1" as="geometry">
                        <mxPoint x="143" y="511" as="sourcePoint"/>
                        <mxPoint x="303" y="511" as="targetPoint"/>
                    </mxGeometry>
                </mxCell>
                <mxCell id="403" style="edgeStyle=none;html=1;entryX=0;entryY=0.25;entryDx=0;entryDy=0;endArrow=none;endFill=0;" edge="1" parent="1" source="148" target="6">
                    <mxGeometry relative="1" as="geometry"/>
                </mxCell>
                <mxCell id="148" value="order_id" style="ellipse;whiteSpace=wrap;html=1;align=center;fontStyle=4;rounded=1;fillColor=#a20025;fontColor=#ffffff;strokeColor=#6F0000;" parent="1" vertex="1">
                    <mxGeometry x="637" y="689" width="100" height="40" as="geometry"/>
                </mxCell>
                <mxCell id="151" value="is child of" style="shape=rhombus;perimeter=rhombusPerimeter;whiteSpace=wrap;html=1;align=center;rounded=1;shadow=0;" parent="1" vertex="1">
                    <mxGeometry x="921" y="472" width="120" height="60" as="geometry"/>
                </mxCell>
                <mxCell id="156" value="cat_parent_id" style="ellipse;whiteSpace=wrap;html=1;align=center;fontStyle=4;rounded=1;fillColor=#a20025;fontColor=#ffffff;strokeColor=#6F0000;" parent="1" vertex="1">
                    <mxGeometry x="794" y="280" width="100" height="40" as="geometry"/>
                </mxCell>
                <mxCell id="157" value="" style="endArrow=none;html=1;rounded=0;entryX=0.5;entryY=0;entryDx=0;entryDy=0;exitX=0.5;exitY=1;exitDx=0;exitDy=0;" parent="1" source="156" target="8" edge="1">
                    <mxGeometry relative="1" as="geometry">
                        <mxPoint x="719" y="469" as="sourcePoint"/>
                        <mxPoint x="1031" y="385" as="targetPoint"/>
                    </mxGeometry>
                </mxCell>
                <mxCell id="158" value="&lt;div&gt;Many categories can be the&lt;/div&gt;&lt;div&gt;child of one category&lt;br&gt;&lt;/div&gt;" style="text;html=1;align=center;verticalAlign=middle;resizable=0;points=[];autosize=1;strokeColor=none;fillColor=none;" parent="1" vertex="1">
                    <mxGeometry x="1000.9999999999999" y="417" width="160" height="41" as="geometry"/>
                </mxCell>
                <mxCell id="159" value="" style="endArrow=none;html=1;rounded=0;exitX=0;exitY=0.5;exitDx=0;exitDy=0;entryX=0.5;entryY=1;entryDx=0;entryDy=0;" parent="1" source="151" target="8" edge="1">
                    <mxGeometry relative="1" as="geometry">
                        <mxPoint x="446" y="761" as="sourcePoint"/>
                        <mxPoint x="519" y="761" as="targetPoint"/>
                        <Array as="points">
                            <mxPoint x="903" y="502"/>
                        </Array>
                    </mxGeometry>
                </mxCell>
                <mxCell id="160" value="N" style="resizable=0;html=1;align=right;verticalAlign=bottom;" parent="159" connectable="0" vertex="1">
                    <mxGeometry x="1" relative="1" as="geometry">
                        <mxPoint x="-9" y="28" as="offset"/>
                    </mxGeometry>
                </mxCell>
                <mxCell id="161" value="" style="endArrow=none;html=1;rounded=0;entryX=0.5;entryY=0;entryDx=0;entryDy=0;exitX=1;exitY=0.5;exitDx=0;exitDy=0;" parent="1" source="8" target="151" edge="1">
                    <mxGeometry relative="1" as="geometry">
                        <mxPoint x="1022" y="413" as="sourcePoint"/>
                        <mxPoint x="870" y="762" as="targetPoint"/>
                        <Array as="points">
                            <mxPoint x="980" y="410"/>
                        </Array>
                    </mxGeometry>
                </mxCell>
                <mxCell id="162" value="1" style="resizable=0;html=1;align=right;verticalAlign=bottom;" parent="161" connectable="0" vertex="1">
                    <mxGeometry x="1" relative="1" as="geometry">
                        <mxPoint x="-11" y="-69" as="offset"/>
                    </mxGeometry>
                </mxCell>
                <mxCell id="166" style="edgeStyle=none;html=1;exitX=1;exitY=0.5;exitDx=0;exitDy=0;entryX=0.5;entryY=0;entryDx=0;entryDy=0;strokeColor=default;endArrow=none;endFill=0;" parent="1" source="163" target="3" edge="1">
                    <mxGeometry relative="1" as="geometry"/>
                </mxCell>
                <mxCell id="163" value="product_id" style="ellipse;whiteSpace=wrap;html=1;align=center;fontStyle=4;rounded=1;fillColor=#60a917;fontColor=#ffffff;strokeColor=#2D7600;" parent="1" vertex="1">
                    <mxGeometry x="94" y="340" width="100" height="40" as="geometry"/>
                </mxCell>
                <mxCell id="165" style="edgeStyle=none;html=1;exitX=0;exitY=1;exitDx=0;exitDy=0;entryX=0.5;entryY=0;entryDx=0;entryDy=0;strokeColor=default;endArrow=none;endFill=0;" parent="1" source="164" target="3" edge="1">
                    <mxGeometry relative="1" as="geometry"/>
                </mxCell>
                <mxCell id="164" value="description" style="ellipse;whiteSpace=wrap;html=1;align=center;fontStyle=0;rounded=1;fillColor=#1ba1e2;fontColor=#ffffff;strokeColor=#006EAF;" parent="1" vertex="1">
                    <mxGeometry x="429" y="307" width="123" height="40" as="geometry"/>
                </mxCell>
                <mxCell id="168" style="edgeStyle=none;html=1;exitX=0;exitY=0.5;exitDx=0;exitDy=0;entryX=0.5;entryY=0;entryDx=0;entryDy=0;strokeColor=default;endArrow=none;endFill=0;" parent="1" source="167" target="3" edge="1">
                    <mxGeometry relative="1" as="geometry"/>
                </mxCell>
                <mxCell id="167" value="price" style="ellipse;whiteSpace=wrap;html=1;align=center;fontStyle=0;rounded=1;fillColor=#1ba1e2;fontColor=#ffffff;strokeColor=#006EAF;" parent="1" vertex="1">
                    <mxGeometry x="442" y="355" width="100" height="40" as="geometry"/>
                </mxCell>
                <mxCell id="172" style="edgeStyle=none;html=1;exitX=0.5;exitY=1;exitDx=0;exitDy=0;entryX=0.5;entryY=0;entryDx=0;entryDy=0;strokeColor=default;endArrow=none;endFill=0;" parent="1" source="170" target="8" edge="1">
                    <mxGeometry relative="1" as="geometry"/>
                </mxCell>
                <mxCell id="170" value="cat_name" style="ellipse;whiteSpace=wrap;html=1;align=center;fontStyle=0;rounded=1;fillColor=#1ba1e2;fontColor=#ffffff;strokeColor=#006EAF;" parent="1" vertex="1">
                    <mxGeometry x="901" y="280" width="100" height="40" as="geometry"/>
                </mxCell>
                <mxCell id="173" style="edgeStyle=none;html=1;exitX=0;exitY=0.5;exitDx=0;exitDy=0;entryX=0.5;entryY=0;entryDx=0;entryDy=0;strokeColor=default;endArrow=none;endFill=0;" parent="1" source="171" target="8" edge="1">
                    <mxGeometry relative="1" as="geometry"/>
                </mxCell>
                <mxCell id="171" value="cat_desc" style="ellipse;whiteSpace=wrap;html=1;align=center;fontStyle=0;rounded=1;fillColor=#1ba1e2;fontColor=#ffffff;strokeColor=#006EAF;" parent="1" vertex="1">
                    <mxGeometry x="942" y="340" width="100" height="40" as="geometry"/>
                </mxCell>
                <mxCell id="184" style="edgeStyle=none;html=1;exitX=0.5;exitY=0;exitDx=0;exitDy=0;entryX=0.5;entryY=1;entryDx=0;entryDy=0;strokeColor=default;endArrow=none;endFill=0;" parent="1" source="175" edge="1">
                    <mxGeometry relative="1" as="geometry">
                        <mxPoint x="303" y="768" as="targetPoint"/>
                    </mxGeometry>
                </mxCell>
                <mxCell id="175" value="&lt;div&gt;orders_status&lt;/div&gt;" style="ellipse;whiteSpace=wrap;html=1;align=center;fontStyle=0;rounded=1;fillColor=#1ba1e2;fontColor=#ffffff;strokeColor=#006EAF;" parent="1" vertex="1">
                    <mxGeometry x="189" y="900" width="100" height="40" as="geometry"/>
                </mxCell>
                <mxCell id="182" style="edgeStyle=none;html=1;exitX=0.5;exitY=0;exitDx=0;exitDy=0;entryX=0.5;entryY=1;entryDx=0;entryDy=0;strokeColor=default;endArrow=none;endFill=0;" parent="1" source="176" edge="1">
                    <mxGeometry relative="1" as="geometry">
                        <mxPoint x="303" y="768" as="targetPoint"/>
                    </mxGeometry>
                </mxCell>
                <mxCell id="176" value="&lt;div&gt;total_amount&lt;/div&gt;" style="ellipse;whiteSpace=wrap;html=1;align=center;fontStyle=4;rounded=1;fillColor=#1ba1e2;fontColor=#ffffff;strokeColor=#006EAF;" parent="1" vertex="1">
                    <mxGeometry x="149.5" y="839" width="100" height="40" as="geometry"/>
                </mxCell>
                <mxCell id="177" value="&lt;div&gt;order_date&lt;/div&gt;" style="ellipse;whiteSpace=wrap;html=1;align=center;fontStyle=4;rounded=1;fillColor=#1ba1e2;fontColor=#ffffff;strokeColor=#006EAF;" parent="1" vertex="1">
                    <mxGeometry x="92" y="769" width="100" height="40" as="geometry"/>
                </mxCell>
                <mxCell id="392" style="edgeStyle=none;html=1;entryX=0;entryY=0;entryDx=0;entryDy=0;endArrow=none;endFill=0;" edge="1" parent="1" source="205" target="317">
                    <mxGeometry relative="1" as="geometry"/>
                </mxCell>
                <mxCell id="205" value="quantity_of_product" style="ellipse;whiteSpace=wrap;html=1;align=center;fontStyle=0;rounded=1;fillColor=#1ba1e2;fontColor=#ffffff;strokeColor=#006EAF;" parent="1" vertex="1">
                    <mxGeometry x="153" y="631" width="126" height="40" as="geometry"/>
                </mxCell>
                <mxCell id="344" style="edgeStyle=none;html=1;entryX=1;entryY=0.75;entryDx=0;entryDy=0;endArrow=none;endFill=0;" parent="1" source="206" target="3" edge="1">
                    <mxGeometry relative="1" as="geometry"/>
                </mxCell>
                <mxCell id="206" value="&lt;div&gt;discount&lt;/div&gt;" style="ellipse;whiteSpace=wrap;html=1;align=center;fontStyle=0;rounded=1;fillColor=#1ba1e2;fontColor=#ffffff;strokeColor=#006EAF;" parent="1" vertex="1">
                    <mxGeometry x="440" y="418" width="100" height="40" as="geometry"/>
                </mxCell>
                <mxCell id="213" style="edgeStyle=none;html=1;entryX=0.5;entryY=0;entryDx=0;entryDy=0;strokeColor=default;endArrow=none;endFill=0;exitX=0.5;exitY=1;exitDx=0;exitDy=0;" parent="1" source="209" target="7" edge="1">
                    <mxGeometry relative="1" as="geometry">
                        <mxPoint x="250" y="-3" as="sourcePoint"/>
                    </mxGeometry>
                </mxCell>
                <mxCell id="209" value="name" style="ellipse;whiteSpace=wrap;html=1;align=center;fontStyle=0;rounded=1;fillColor=#1ba1e2;fontColor=#ffffff;strokeColor=#006EAF;" parent="1" vertex="1">
                    <mxGeometry x="49.5" y="-56" width="100" height="40" as="geometry"/>
                </mxCell>
                <mxCell id="212" style="edgeStyle=none;html=1;exitX=1;exitY=1;exitDx=0;exitDy=0;entryX=0.5;entryY=0;entryDx=0;entryDy=0;strokeColor=default;endArrow=none;endFill=0;" parent="1" source="210" target="7" edge="1">
                    <mxGeometry relative="1" as="geometry"/>
                </mxCell>
                <mxCell id="210" value="contact_number" style="ellipse;whiteSpace=wrap;html=1;align=center;fontStyle=0;rounded=1;fillColor=#1ba1e2;fontColor=#ffffff;strokeColor=#006EAF;" parent="1" vertex="1">
                    <mxGeometry x="43" y="23" width="100" height="40" as="geometry"/>
                </mxCell>
                <mxCell id="211" value="email" style="ellipse;whiteSpace=wrap;html=1;align=center;fontStyle=0;rounded=1;fillColor=#1ba1e2;fontColor=#ffffff;strokeColor=#006EAF;" parent="1" vertex="1">
                    <mxGeometry x="156" y="-96" width="100" height="40" as="geometry"/>
                </mxCell>
                <mxCell id="217" value="ad_url" style="ellipse;whiteSpace=wrap;html=1;align=center;fontStyle=0;rounded=1;fillColor=#1ba1e2;fontColor=#ffffff;strokeColor=#006EAF;" parent="1" vertex="1">
                    <mxGeometry x="-165" y="328" width="100" height="40" as="geometry"/>
                </mxCell>
                <mxCell id="218" value="" style="endArrow=none;html=1;rounded=0;exitX=0;exitY=1;exitDx=0;exitDy=0;entryX=0.5;entryY=0;entryDx=0;entryDy=0;" parent="1" source="217" target="9" edge="1">
                    <mxGeometry relative="1" as="geometry">
                        <mxPoint x="-20" y="389.5" as="sourcePoint"/>
                        <mxPoint x="-63" y="357.5000000000002" as="targetPoint"/>
                    </mxGeometry>
                </mxCell>
                <mxCell id="226" style="edgeStyle=none;html=1;exitX=0;exitY=1;exitDx=0;exitDy=0;entryX=0.5;entryY=0;entryDx=0;entryDy=0;strokeColor=default;fontSize=10;endArrow=none;endFill=0;" parent="1" source="220" target="2" edge="1">
                    <mxGeometry relative="1" as="geometry"/>
                </mxCell>
                <mxCell id="220" value="first_name" style="ellipse;whiteSpace=wrap;html=1;align=center;fontStyle=0;rounded=1;fillColor=#1ba1e2;fontColor=#ffffff;strokeColor=#006EAF;" parent="1" vertex="1">
                    <mxGeometry x="-124" y="555" width="100" height="40" as="geometry"/>
                </mxCell>
                <mxCell id="230" style="edgeStyle=none;html=1;exitX=0;exitY=0.5;exitDx=0;exitDy=0;strokeColor=default;fontSize=10;endArrow=none;endFill=0;" parent="1" source="222" edge="1">
                    <mxGeometry relative="1" as="geometry">
                        <mxPoint x="-170" y="718" as="targetPoint"/>
                    </mxGeometry>
                </mxCell>
                <mxCell id="222" value="email" style="ellipse;whiteSpace=wrap;html=1;align=center;fontStyle=0;rounded=1;fillColor=#1ba1e2;fontColor=#ffffff;strokeColor=#006EAF;" parent="1" vertex="1">
                    <mxGeometry x="-96" y="673" width="100" height="40" as="geometry"/>
                </mxCell>
                <mxCell id="228" style="edgeStyle=none;html=1;exitX=1;exitY=0.5;exitDx=0;exitDy=0;entryX=0.5;entryY=0;entryDx=0;entryDy=0;strokeColor=default;fontSize=10;endArrow=none;endFill=0;" parent="1" source="223" target="2" edge="1">
                    <mxGeometry relative="1" as="geometry"/>
                </mxCell>
                <mxCell id="223" value="contact_number" style="ellipse;whiteSpace=wrap;html=1;align=center;fontStyle=0;rounded=1;fillColor=#1ba1e2;fontColor=#ffffff;strokeColor=#006EAF;" parent="1" vertex="1">
                    <mxGeometry x="-334" y="520" width="97" height="45" as="geometry"/>
                </mxCell>
                <mxCell id="229" style="edgeStyle=none;html=1;exitX=0;exitY=0.5;exitDx=0;exitDy=0;entryX=0.5;entryY=0;entryDx=0;entryDy=0;strokeColor=default;fontSize=10;endArrow=none;endFill=0;" parent="1" source="224" target="2" edge="1">
                    <mxGeometry relative="1" as="geometry"/>
                </mxCell>
                <mxCell id="224" value="last_name" style="ellipse;whiteSpace=wrap;html=1;align=center;fontStyle=0;rounded=1;fillColor=#1ba1e2;fontColor=#ffffff;strokeColor=#006EAF;" parent="1" vertex="1">
                    <mxGeometry x="-96" y="611" width="100" height="40" as="geometry"/>
                </mxCell>
                <mxCell id="401" style="edgeStyle=none;html=1;entryX=0.5;entryY=0;entryDx=0;entryDy=0;endArrow=none;endFill=0;" edge="1" parent="1" source="231" target="6">
                    <mxGeometry relative="1" as="geometry"/>
                </mxCell>
                <mxCell id="231" value="transaction_time" style="ellipse;whiteSpace=wrap;html=1;align=center;fontStyle=0;rounded=1;fillColor=#1ba1e2;fontColor=#ffffff;strokeColor=#006EAF;" parent="1" vertex="1">
                    <mxGeometry x="719" y="567" width="100" height="40" as="geometry"/>
                </mxCell>
                <mxCell id="400" style="edgeStyle=none;html=1;endArrow=none;endFill=0;" edge="1" parent="1" source="232" target="6">
                    <mxGeometry relative="1" as="geometry"/>
                </mxCell>
                <mxCell id="232" value="payment_type" style="ellipse;whiteSpace=wrap;html=1;align=center;fontStyle=0;rounded=1;fillColor=#1ba1e2;fontColor=#ffffff;strokeColor=#006EAF;" parent="1" vertex="1">
                    <mxGeometry x="846" y="571" width="100" height="40" as="geometry"/>
                </mxCell>
                <mxCell id="399" style="edgeStyle=none;html=1;entryX=0.75;entryY=0;entryDx=0;entryDy=0;endArrow=none;endFill=0;" edge="1" parent="1" source="233" target="6">
                    <mxGeometry relative="1" as="geometry"/>
                </mxCell>
                <mxCell id="233" value="total_value" style="ellipse;whiteSpace=wrap;html=1;align=center;fontStyle=0;rounded=1;fillColor=#1ba1e2;fontColor=#ffffff;strokeColor=#006EAF;" parent="1" vertex="1">
                    <mxGeometry x="918" y="631" width="100" height="40" as="geometry"/>
                </mxCell>
                <mxCell id="237" value="stock" style="ellipse;whiteSpace=wrap;html=1;align=center;fontStyle=0;rounded=1;fillColor=#1ba1e2;fontColor=#ffffff;strokeColor=#006EAF;" parent="1" vertex="1">
                    <mxGeometry x="310" y="237" width="100" height="40" as="geometry"/>
                </mxCell>
                <mxCell id="252" value="Delivery" style="whiteSpace=wrap;html=1;align=center;rounded=1;" parent="1" vertex="1">
                    <mxGeometry x="244.5" y="1132" width="100" height="40" as="geometry"/>
                </mxCell>
                <mxCell id="259" style="edgeStyle=none;html=1;exitX=0.5;exitY=0;exitDx=0;exitDy=0;entryX=0.75;entryY=1;entryDx=0;entryDy=0;strokeColor=default;fontSize=10;endArrow=none;endFill=0;" parent="1" source="256" target="252" edge="1">
                    <mxGeometry relative="1" as="geometry"/>
                </mxCell>
                <mxCell id="256" value="shipping_cost" style="ellipse;whiteSpace=wrap;html=1;align=center;fontStyle=0;rounded=1;fillColor=#1ba1e2;fontColor=#ffffff;strokeColor=#006EAF;" parent="1" vertex="1">
                    <mxGeometry x="303" y="1255" width="100" height="40" as="geometry"/>
                </mxCell>
                <mxCell id="258" style="edgeStyle=none;html=1;exitX=0.5;exitY=0;exitDx=0;exitDy=0;entryX=0.5;entryY=1;entryDx=0;entryDy=0;strokeColor=default;fontSize=10;endArrow=none;endFill=0;" parent="1" target="252" edge="1" source="327">
                    <mxGeometry relative="1" as="geometry">
                        <mxPoint x="249.85533905932743" y="1211.8578643762692" as="sourcePoint"/>
                    </mxGeometry>
                </mxCell>
                <mxCell id="398" style="edgeStyle=none;html=1;endArrow=none;endFill=0;" edge="1" parent="1" source="269" target="6">
                    <mxGeometry relative="1" as="geometry"/>
                </mxCell>
                <mxCell id="269" value="payment_status" style="ellipse;whiteSpace=wrap;html=1;align=center;fontStyle=0;rounded=1;fillColor=#1ba1e2;fontColor=#ffffff;strokeColor=#006EAF;" parent="1" vertex="1">
                    <mxGeometry x="941" y="722" width="100" height="40" as="geometry"/>
                </mxCell>
                <mxCell id="388" style="edgeStyle=none;html=1;endArrow=none;endFill=0;" edge="1" parent="1" source="283" target="2">
                    <mxGeometry relative="1" as="geometry"/>
                </mxCell>
                <mxCell id="283" value="&lt;div&gt;country&lt;/div&gt;" style="ellipse;whiteSpace=wrap;html=1;align=center;fontStyle=0;rounded=1;fillColor=#1ba1e2;fontColor=#ffffff;strokeColor=#006EAF;" parent="1" vertex="1">
                    <mxGeometry x="-143" y="845" width="100" height="40" as="geometry"/>
                </mxCell>
                <mxCell id="383" style="edgeStyle=none;html=1;endArrow=none;endFill=0;" edge="1" parent="1" source="284" target="2">
                    <mxGeometry relative="1" as="geometry"/>
                </mxCell>
                <mxCell id="284" value="&lt;div&gt;unit&lt;/div&gt;" style="ellipse;whiteSpace=wrap;html=1;align=center;fontStyle=0;rounded=1;fillColor=#1ba1e2;fontColor=#ffffff;strokeColor=#006EAF;" parent="1" vertex="1">
                    <mxGeometry x="-443" y="637" width="100" height="40" as="geometry"/>
                </mxCell>
                <mxCell id="384" style="edgeStyle=none;html=1;entryX=0;entryY=0.5;entryDx=0;entryDy=0;endArrow=none;endFill=0;" edge="1" parent="1" source="285" target="2">
                    <mxGeometry relative="1" as="geometry"/>
                </mxCell>
                <mxCell id="285" value="&lt;div&gt;city&lt;/div&gt;" style="ellipse;whiteSpace=wrap;html=1;align=center;fontStyle=0;rounded=1;fillColor=#1ba1e2;fontColor=#ffffff;strokeColor=#006EAF;" parent="1" vertex="1">
                    <mxGeometry x="-445" y="703" width="100" height="40" as="geometry"/>
                </mxCell>
                <mxCell id="386" style="edgeStyle=none;html=1;entryX=0.25;entryY=1;entryDx=0;entryDy=0;endArrow=none;endFill=0;" edge="1" parent="1" source="286" target="2">
                    <mxGeometry relative="1" as="geometry"/>
                </mxCell>
                <mxCell id="286" value="&lt;div&gt;street&lt;/div&gt;" style="ellipse;whiteSpace=wrap;html=1;align=center;fontStyle=0;rounded=1;fillColor=#1ba1e2;fontColor=#ffffff;strokeColor=#006EAF;" parent="1" vertex="1">
                    <mxGeometry x="-375" y="842" width="100" height="40" as="geometry"/>
                </mxCell>
                <mxCell id="387" style="edgeStyle=none;html=1;endArrow=none;endFill=0;" edge="1" parent="1" source="287" target="2">
                    <mxGeometry relative="1" as="geometry"/>
                </mxCell>
                <mxCell id="287" value="&lt;div&gt;block&lt;/div&gt;" style="ellipse;whiteSpace=wrap;html=1;align=center;fontStyle=0;rounded=1;fillColor=#1ba1e2;fontColor=#ffffff;strokeColor=#006EAF;" parent="1" vertex="1">
                    <mxGeometry x="-256" y="867" width="100" height="40" as="geometry"/>
                </mxCell>
                <mxCell id="310" value="assume 1 customer only has 1 address" style="text;html=1;align=center;verticalAlign=middle;resizable=0;points=[];autosize=1;strokeColor=none;fillColor=none;" parent="1" vertex="1">
                    <mxGeometry x="-702" y="739" width="227" height="26" as="geometry"/>
                </mxCell>
                <mxCell id="311" value="address_id" style="ellipse;whiteSpace=wrap;html=1;align=center;fontStyle=4;rounded=1;fillColor=#a20025;fontColor=#ffffff;strokeColor=#6F0000;" parent="1" vertex="1">
                    <mxGeometry x="363" y="843" width="100" height="40" as="geometry"/>
                </mxCell>
                <mxCell id="391" style="edgeStyle=none;html=1;entryX=0;entryY=0.5;entryDx=0;entryDy=0;endArrow=none;endFill=0;" edge="1" parent="1" source="317" target="6">
                    <mxGeometry relative="1" as="geometry"/>
                </mxCell>
                <mxCell id="407" style="edgeStyle=none;html=1;endArrow=none;endFill=0;" edge="1" parent="1" source="317" target="252">
                    <mxGeometry relative="1" as="geometry"/>
                </mxCell>
                <mxCell id="317" value="Order&lt;br&gt;Details" style="shape=rhombus;perimeter=rhombusPerimeter;whiteSpace=wrap;html=1;align=center;rounded=1;" parent="1" vertex="1">
                    <mxGeometry x="243" y="712" width="120" height="60" as="geometry"/>
                </mxCell>
                <mxCell id="385" style="edgeStyle=none;html=1;entryX=0;entryY=1;entryDx=0;entryDy=0;endArrow=none;endFill=0;" edge="1" parent="1" source="318" target="2">
                    <mxGeometry relative="1" as="geometry"/>
                </mxCell>
                <mxCell id="318" value="&lt;div&gt;floor&lt;/div&gt;" style="ellipse;whiteSpace=wrap;html=1;align=center;fontStyle=0;rounded=1;fillColor=#1ba1e2;fontColor=#ffffff;strokeColor=#006EAF;" parent="1" vertex="1">
                    <mxGeometry x="-434" y="775" width="100" height="40" as="geometry"/>
                </mxCell>
                <mxCell id="321" style="edgeStyle=none;html=1;endArrow=none;endFill=0;" parent="1" source="320" edge="1">
                    <mxGeometry relative="1" as="geometry">
                        <mxPoint x="-167.66815185546875" y="711.9092864990234" as="targetPoint"/>
                    </mxGeometry>
                </mxCell>
                <mxCell id="320" value="date_of_birth" style="ellipse;whiteSpace=wrap;html=1;align=center;fontStyle=0;rounded=1;fillColor=#1ba1e2;fontColor=#ffffff;strokeColor=#006EAF;" parent="1" vertex="1">
                    <mxGeometry x="-386" y="579" width="100" height="40" as="geometry"/>
                </mxCell>
                <mxCell id="322" value="Courier" style="whiteSpace=wrap;html=1;align=center;rounded=1;" parent="1" vertex="1">
                    <mxGeometry x="601.5" y="1132" width="100" height="40" as="geometry"/>
                </mxCell>
                <mxCell id="325" value="1" style="edgeStyle=none;html=1;endArrow=none;endFill=0;" parent="1" source="324" target="322" edge="1">
                    <mxGeometry relative="1" as="geometry"/>
                </mxCell>
                <mxCell id="326" value="N" style="edgeStyle=none;html=1;endArrow=none;endFill=0;" parent="1" source="324" target="252" edge="1">
                    <mxGeometry relative="1" as="geometry"/>
                </mxCell>
                <mxCell id="324" value="is shipped by" style="shape=rhombus;perimeter=rhombusPerimeter;whiteSpace=wrap;html=1;align=center;rounded=1;" parent="1" vertex="1">
                    <mxGeometry x="413.5" y="1126" width="120" height="60" as="geometry"/>
                </mxCell>
                <mxCell id="327" value="courier_id" style="ellipse;whiteSpace=wrap;html=1;align=center;fontStyle=0;rounded=1;fillColor=#a20025;fontColor=#ffffff;strokeColor=#6F0000;" parent="1" vertex="1">
                    <mxGeometry x="174" y="1249" width="100" height="40" as="geometry"/>
                </mxCell>
                <mxCell id="406" style="edgeStyle=none;html=1;entryX=0;entryY=0.5;entryDx=0;entryDy=0;endArrow=none;endFill=0;" edge="1" parent="1" source="328" target="252">
                    <mxGeometry relative="1" as="geometry"/>
                </mxCell>
                <mxCell id="328" value="delivery_id" style="ellipse;whiteSpace=wrap;html=1;align=center;fontStyle=4;rounded=1;fillColor=#60a917;fontColor=#ffffff;strokeColor=#2D7600;" parent="1" vertex="1">
                    <mxGeometry x="100" y="1109" width="100" height="40" as="geometry"/>
                </mxCell>
                <mxCell id="333" style="edgeStyle=none;html=1;entryX=0.25;entryY=0;entryDx=0;entryDy=0;endArrow=none;endFill=0;" parent="1" source="329" target="252" edge="1">
                    <mxGeometry relative="1" as="geometry"/>
                </mxCell>
                <mxCell id="329" value="delivery_time" style="ellipse;whiteSpace=wrap;html=1;align=center;fontStyle=0;rounded=1;fillColor=#1ba1e2;fontColor=#ffffff;strokeColor=#006EAF;" parent="1" vertex="1">
                    <mxGeometry x="131" y="1032" width="100" height="40" as="geometry"/>
                </mxCell>
                <mxCell id="405" style="edgeStyle=none;html=1;endArrow=none;endFill=0;" edge="1" parent="1" source="330" target="252">
                    <mxGeometry relative="1" as="geometry"/>
                </mxCell>
                <mxCell id="330" value="delivery_status" style="ellipse;whiteSpace=wrap;html=1;align=center;fontStyle=0;rounded=1;fillColor=#1ba1e2;fontColor=#ffffff;strokeColor=#006EAF;" parent="1" vertex="1">
                    <mxGeometry x="100" y="1181" width="100" height="40" as="geometry"/>
                </mxCell>
                <mxCell id="404" style="edgeStyle=none;html=1;entryX=0.875;entryY=1.007;entryDx=0;entryDy=0;entryPerimeter=0;endArrow=none;endFill=0;" edge="1" parent="1" source="334" target="252">
                    <mxGeometry relative="1" as="geometry"/>
                </mxCell>
                <mxCell id="334" value="delivery_type" style="ellipse;whiteSpace=wrap;html=1;align=center;fontStyle=0;rounded=1;fillColor=#1ba1e2;fontColor=#ffffff;strokeColor=#006EAF;" parent="1" vertex="1">
                    <mxGeometry x="385" y="1196" width="100" height="40" as="geometry"/>
                </mxCell>
                <mxCell id="340" style="edgeStyle=none;html=1;entryX=0.5;entryY=0;entryDx=0;entryDy=0;endArrow=none;endFill=0;" parent="1" source="336" target="322" edge="1">
                    <mxGeometry relative="1" as="geometry"/>
                </mxCell>
                <mxCell id="336" value="courier_id" style="ellipse;whiteSpace=wrap;html=1;align=center;fontStyle=4;rounded=1;fillColor=#60a917;fontColor=#ffffff;strokeColor=#2D7600;" parent="1" vertex="1">
                    <mxGeometry x="597.5" y="1011" width="100" height="40" as="geometry"/>
                </mxCell>
                <mxCell id="341" style="edgeStyle=none;html=1;entryX=0.75;entryY=0;entryDx=0;entryDy=0;endArrow=none;endFill=0;" parent="1" source="337" target="322" edge="1">
                    <mxGeometry relative="1" as="geometry"/>
                </mxCell>
                <mxCell id="337" value="first_name" style="ellipse;whiteSpace=wrap;html=1;align=center;fontStyle=0;rounded=1;fillColor=#1ba1e2;fontColor=#ffffff;strokeColor=#006EAF;" parent="1" vertex="1">
                    <mxGeometry x="708.5" y="1048" width="100" height="40" as="geometry"/>
                </mxCell>
                <mxCell id="342" value="" style="edgeStyle=none;html=1;endArrow=none;endFill=0;" parent="1" source="338" target="322" edge="1">
                    <mxGeometry relative="1" as="geometry"/>
                </mxCell>
                <mxCell id="338" value="last_name" style="ellipse;whiteSpace=wrap;html=1;align=center;fontStyle=0;rounded=1;fillColor=#1ba1e2;fontColor=#ffffff;strokeColor=#006EAF;" parent="1" vertex="1">
                    <mxGeometry x="734.5" y="1122" width="100" height="40" as="geometry"/>
                </mxCell>
                <mxCell id="343" style="edgeStyle=none;html=1;entryX=0.847;entryY=1.017;entryDx=0;entryDy=0;entryPerimeter=0;endArrow=none;endFill=0;" parent="1" source="339" target="322" edge="1">
                    <mxGeometry relative="1" as="geometry"/>
                </mxCell>
                <mxCell id="339" value="contact_number" style="ellipse;whiteSpace=wrap;html=1;align=center;fontStyle=0;rounded=1;fillColor=#1ba1e2;fontColor=#ffffff;strokeColor=#006EAF;" parent="1" vertex="1">
                    <mxGeometry x="737.5" y="1178" width="100" height="40" as="geometry"/>
                </mxCell>
                <mxCell id="346" style="edgeStyle=none;html=1;entryX=0.877;entryY=0.979;entryDx=0;entryDy=0;entryPerimeter=0;endArrow=none;endFill=0;" parent="1" source="345" target="3" edge="1">
                    <mxGeometry relative="1" as="geometry"/>
                </mxCell>
                <mxCell id="345" value="&lt;div&gt;discounted_price&lt;/div&gt;" style="ellipse;whiteSpace=wrap;html=1;align=center;fontStyle=0;rounded=1;fillColor=#1ba1e2;fontColor=#ffffff;strokeColor=#006EAF;dashed=1;dashPattern=8 8;" parent="1" vertex="1">
                    <mxGeometry x="363" y="466" width="100" height="40" as="geometry"/>
                </mxCell>
                <mxCell id="389" style="edgeStyle=none;html=1;endArrow=none;endFill=0;" edge="1" parent="1" source="350" target="2">
                    <mxGeometry relative="1" as="geometry"/>
                </mxCell>
                <mxCell id="350" value="&lt;div&gt;zipcode&lt;/div&gt;" style="ellipse;whiteSpace=wrap;html=1;align=center;fontStyle=0;rounded=1;fillColor=#1ba1e2;fontColor=#ffffff;strokeColor=#006EAF;" parent="1" vertex="1">
                    <mxGeometry x="-96" y="780" width="100" height="40" as="geometry"/>
                </mxCell>
                <mxCell id="364" style="edgeStyle=none;html=1;entryX=1;entryY=0.5;entryDx=0;entryDy=0;endArrow=none;endFill=0;" parent="1" source="352" target="7" edge="1">
                    <mxGeometry relative="1" as="geometry"/>
                </mxCell>
                <mxCell id="352" value="&lt;div&gt;country&lt;/div&gt;" style="ellipse;whiteSpace=wrap;html=1;align=center;fontStyle=0;rounded=1;fillColor=#1ba1e2;fontColor=#ffffff;strokeColor=#006EAF;" parent="1" vertex="1">
                    <mxGeometry x="499" y="109" width="100" height="40" as="geometry"/>
                </mxCell>
                <mxCell id="359" style="edgeStyle=none;html=1;endArrow=none;endFill=0;" parent="1" source="353" edge="1">
                    <mxGeometry relative="1" as="geometry">
                        <mxPoint x="299.75655110677076" y="68.61661444769959" as="targetPoint"/>
                    </mxGeometry>
                </mxCell>
                <mxCell id="353" value="&lt;div&gt;unit&lt;/div&gt;" style="ellipse;whiteSpace=wrap;html=1;align=center;fontStyle=0;rounded=1;fillColor=#1ba1e2;fontColor=#ffffff;strokeColor=#006EAF;" parent="1" vertex="1">
                    <mxGeometry x="267" y="-123" width="100" height="40" as="geometry"/>
                </mxCell>
                <mxCell id="360" style="edgeStyle=none;html=1;endArrow=none;endFill=0;" parent="1" source="354" edge="1">
                    <mxGeometry relative="1" as="geometry">
                        <mxPoint x="304.088419596354" y="67.750254313151" as="targetPoint"/>
                    </mxGeometry>
                </mxCell>
                <mxCell id="354" value="&lt;div&gt;city&lt;/div&gt;" style="ellipse;whiteSpace=wrap;html=1;align=center;fontStyle=0;rounded=1;fillColor=#1ba1e2;fontColor=#ffffff;strokeColor=#006EAF;" parent="1" vertex="1">
                    <mxGeometry x="367" y="-96" width="100" height="40" as="geometry"/>
                </mxCell>
                <mxCell id="362" style="edgeStyle=none;html=1;endArrow=none;endFill=0;" parent="1" source="355" edge="1">
                    <mxGeometry relative="1" as="geometry">
                        <mxPoint x="310.1530083550347" y="66.88389417860242" as="targetPoint"/>
                    </mxGeometry>
                </mxCell>
                <mxCell id="355" value="&lt;div&gt;street&lt;/div&gt;" style="ellipse;whiteSpace=wrap;html=1;align=center;fontStyle=0;rounded=1;fillColor=#1ba1e2;fontColor=#ffffff;strokeColor=#006EAF;" parent="1" vertex="1">
                    <mxGeometry x="494" y="-2" width="100" height="40" as="geometry"/>
                </mxCell>
                <mxCell id="363" style="edgeStyle=none;html=1;entryX=1;entryY=0;entryDx=0;entryDy=0;endArrow=none;endFill=0;" parent="1" source="356" target="7" edge="1">
                    <mxGeometry relative="1" as="geometry"/>
                </mxCell>
                <mxCell id="356" value="&lt;div&gt;block&lt;/div&gt;" style="ellipse;whiteSpace=wrap;html=1;align=center;fontStyle=0;rounded=1;fillColor=#1ba1e2;fontColor=#ffffff;strokeColor=#006EAF;" parent="1" vertex="1">
                    <mxGeometry x="512" y="56" width="100" height="40" as="geometry"/>
                </mxCell>
                <mxCell id="361" style="edgeStyle=none;html=1;endArrow=none;endFill=0;" parent="1" source="357" edge="1">
                    <mxGeometry relative="1" as="geometry">
                        <mxPoint x="302.3422037760415" y="70.34930080837671" as="targetPoint"/>
                    </mxGeometry>
                </mxCell>
                <mxCell id="357" value="&lt;div&gt;floor&lt;/div&gt;" style="ellipse;whiteSpace=wrap;html=1;align=center;fontStyle=0;rounded=1;fillColor=#1ba1e2;fontColor=#ffffff;strokeColor=#006EAF;" parent="1" vertex="1">
                    <mxGeometry x="448" y="-51" width="100" height="40" as="geometry"/>
                </mxCell>
                <mxCell id="365" style="edgeStyle=none;html=1;entryX=1;entryY=1;entryDx=0;entryDy=0;endArrow=none;endFill=0;" parent="1" source="358" target="7" edge="1">
                    <mxGeometry relative="1" as="geometry"/>
                </mxCell>
                <mxCell id="358" value="&lt;div&gt;zipcode&lt;/div&gt;" style="ellipse;whiteSpace=wrap;html=1;align=center;fontStyle=0;rounded=1;fillColor=#1ba1e2;fontColor=#ffffff;strokeColor=#006EAF;" parent="1" vertex="1">
                    <mxGeometry x="422" y="160" width="100" height="40" as="geometry"/>
                </mxCell>
                <mxCell id="397" style="edgeStyle=none;html=1;endArrow=none;endFill=0;" edge="1" parent="1" source="374" target="6">
                    <mxGeometry relative="1" as="geometry"/>
                </mxCell>
                <mxCell id="374" value="card_number" style="ellipse;whiteSpace=wrap;html=1;align=center;fontStyle=0;rounded=1;fillColor=#1ba1e2;fontColor=#ffffff;strokeColor=#006EAF;" parent="1" vertex="1">
                    <mxGeometry x="924" y="819" width="100" height="40" as="geometry"/>
                </mxCell>
                <mxCell id="396" style="edgeStyle=none;html=1;entryX=0.5;entryY=1;entryDx=0;entryDy=0;endArrow=none;endFill=0;" edge="1" parent="1" source="376" target="6">
                    <mxGeometry relative="1" as="geometry"/>
                </mxCell>
                <mxCell id="376" value="expiry_date" style="ellipse;whiteSpace=wrap;html=1;align=center;fontStyle=0;rounded=1;fillColor=#1ba1e2;fontColor=#ffffff;strokeColor=#006EAF;" parent="1" vertex="1">
                    <mxGeometry x="805" y="853" width="100" height="40" as="geometry"/>
                </mxCell>
                <mxCell id="395" style="edgeStyle=none;html=1;endArrow=none;endFill=0;" edge="1" parent="1" source="377" target="6">
                    <mxGeometry relative="1" as="geometry"/>
                </mxCell>
                <mxCell id="377" value="cvv" style="ellipse;whiteSpace=wrap;html=1;align=center;fontStyle=0;rounded=1;fillColor=#1ba1e2;fontColor=#ffffff;strokeColor=#006EAF;" parent="1" vertex="1">
                    <mxGeometry x="686" y="819" width="100" height="40" as="geometry"/>
                </mxCell>
                <mxCell id="381" style="edgeStyle=none;html=1;entryX=0;entryY=0.75;entryDx=0;entryDy=0;endArrow=none;endFill=0;" parent="1" source="380" target="3" edge="1">
                    <mxGeometry relative="1" as="geometry"/>
                </mxCell>
                <mxCell id="380" value="rating" style="ellipse;whiteSpace=wrap;html=1;align=center;fontStyle=0;rounded=1;fillColor=#1ba1e2;fontColor=#ffffff;strokeColor=#006EAF;" parent="1" vertex="1">
                    <mxGeometry x="92" y="423" width="100" height="40" as="geometry"/>
                </mxCell>
                <mxCell id="408" value="Customer" style="whiteSpace=wrap;html=1;align=center;rounded=1;" vertex="1" parent="1">
                    <mxGeometry x="2178" y="1216.5" width="100" height="40" as="geometry"/>
                </mxCell>
                <mxCell id="409" style="edgeStyle=none;html=1;entryX=0.5;entryY=1;entryDx=0;entryDy=0;strokeColor=default;fontSize=10;endArrow=none;endFill=0;exitX=0.5;exitY=0;exitDx=0;exitDy=0;" edge="1" parent="1" source="410" target="517">
                    <mxGeometry relative="1" as="geometry">
                        <mxPoint x="2234" y="340" as="sourcePoint"/>
                    </mxGeometry>
                </mxCell>
                <mxCell id="410" value="Product" style="whiteSpace=wrap;html=1;align=center;rounded=1;arcSize=28;" vertex="1" parent="1">
                    <mxGeometry x="2175" y="370" width="100" height="40" as="geometry"/>
                </mxCell>
                <mxCell id="411" style="edgeStyle=none;html=1;exitX=0;exitY=0.5;exitDx=0;exitDy=0;entryX=1;entryY=0.5;entryDx=0;entryDy=0;strokeColor=default;endArrow=none;endFill=0;" edge="1" parent="1" target="491" source="538">
                    <mxGeometry relative="1" as="geometry">
                        <mxPoint x="2474" y="761" as="sourcePoint"/>
                    </mxGeometry>
                </mxCell>
                <mxCell id="412" style="edgeStyle=none;html=1;exitX=0.5;exitY=1;exitDx=0;exitDy=0;entryX=0;entryY=0.5;entryDx=0;entryDy=0;endArrow=none;endFill=0;" edge="1" parent="1" target="535">
                    <mxGeometry relative="1" as="geometry">
                        <mxPoint x="2474" y="761" as="sourcePoint"/>
                    </mxGeometry>
                </mxCell>
                <mxCell id="413" value="Transaction" style="whiteSpace=wrap;html=1;align=center;rounded=1;" vertex="1" parent="1">
                    <mxGeometry x="2948" y="722" width="100" height="40" as="geometry"/>
                </mxCell>
                <mxCell id="414" style="edgeStyle=none;html=1;exitX=0.5;exitY=0;exitDx=0;exitDy=0;entryX=0.5;entryY=1;entryDx=0;entryDy=0;strokeColor=default;endArrow=none;endFill=0;" edge="1" parent="1" source="415" target="500">
                    <mxGeometry relative="1" as="geometry"/>
                </mxCell>
                <mxCell id="415" value="Supplier" style="whiteSpace=wrap;html=1;align=center;rounded=1;" vertex="1" parent="1">
                    <mxGeometry x="2175" y="49" width="100" height="40" as="geometry"/>
                </mxCell>
                <mxCell id="416" value="Category" style="whiteSpace=wrap;html=1;align=center;rounded=1;" vertex="1" parent="1">
                    <mxGeometry x="2774.9" y="370" width="100" height="40" as="geometry"/>
                </mxCell>
                <mxCell id="417" value="Ad" style="whiteSpace=wrap;html=1;align=center;rounded=1;" vertex="1" parent="1">
                    <mxGeometry x="1691" y="370.5" width="100" height="40" as="geometry"/>
                </mxCell>
                <mxCell id="418" value="belongs to" style="shape=rhombus;perimeter=rhombusPerimeter;whiteSpace=wrap;html=1;align=center;rounded=1;" vertex="1" parent="1">
                    <mxGeometry x="2501" y="360" width="120" height="60" as="geometry"/>
                </mxCell>
                <mxCell id="419" value="" style="endArrow=none;html=1;rounded=1;entryX=0;entryY=0.5;entryDx=0;entryDy=0;exitX=0.953;exitY=0.499;exitDx=0;exitDy=0;exitPerimeter=0;" edge="1" parent="1" source="418" target="416">
                    <mxGeometry relative="1" as="geometry">
                        <mxPoint x="2715" y="324" as="sourcePoint"/>
                        <mxPoint x="2872" y="420" as="targetPoint"/>
                    </mxGeometry>
                </mxCell>
                <mxCell id="420" value="1" style="resizable=0;html=1;align=right;verticalAlign=bottom;rounded=1;" connectable="0" vertex="1" parent="419">
                    <mxGeometry x="1" relative="1" as="geometry">
                        <mxPoint x="-5" as="offset"/>
                    </mxGeometry>
                </mxCell>
                <mxCell id="421" value="" style="endArrow=none;html=1;rounded=1;exitX=0;exitY=0.5;exitDx=0;exitDy=0;entryX=1;entryY=0.5;entryDx=0;entryDy=0;" edge="1" parent="1" source="418" target="410">
                    <mxGeometry relative="1" as="geometry">
                        <mxPoint x="2325" y="402" as="sourcePoint"/>
                        <mxPoint x="2286" y="402" as="targetPoint"/>
                    </mxGeometry>
                </mxCell>
                <mxCell id="422" value="N" style="resizable=0;html=1;align=right;verticalAlign=bottom;rounded=1;" connectable="0" vertex="1" parent="421">
                    <mxGeometry x="1" relative="1" as="geometry">
                        <mxPoint x="16" as="offset"/>
                    </mxGeometry>
                </mxCell>
                <mxCell id="423" value="cat_id" style="ellipse;whiteSpace=wrap;html=1;align=center;fontStyle=4;rounded=1;fillColor=#60a917;fontColor=#ffffff;strokeColor=#2D7600;" vertex="1" parent="1">
                    <mxGeometry x="2668" y="316.5" width="100" height="40" as="geometry"/>
                </mxCell>
                <mxCell id="424" value="" style="endArrow=none;html=1;rounded=0;entryX=0.5;entryY=0;entryDx=0;entryDy=0;exitX=1;exitY=0.5;exitDx=0;exitDy=0;" edge="1" parent="1" source="423" target="416">
                    <mxGeometry relative="1" as="geometry">
                        <mxPoint x="2512.9" y="454" as="sourcePoint"/>
                        <mxPoint x="2672.9" y="454" as="targetPoint"/>
                    </mxGeometry>
                </mxCell>
                <mxCell id="425" value="&lt;u&gt;cat_id&lt;/u&gt;" style="ellipse;whiteSpace=wrap;html=1;align=center;rounded=1;fillColor=#a20025;fontColor=#ffffff;strokeColor=#6F0000;" vertex="1" parent="1">
                    <mxGeometry x="2114" y="217" width="100" height="40" as="geometry"/>
                </mxCell>
                <mxCell id="426" value="name" style="ellipse;whiteSpace=wrap;html=1;align=center;fontStyle=0;rounded=1;fillColor=#1ba1e2;fontColor=#ffffff;strokeColor=#006EAF;" vertex="1" parent="1">
                    <mxGeometry x="2325" y="243" width="100" height="40" as="geometry"/>
                </mxCell>
                <mxCell id="427" value="" style="endArrow=none;html=1;rounded=0;exitX=0;exitY=1;exitDx=0;exitDy=0;entryX=0.5;entryY=0;entryDx=0;entryDy=0;" edge="1" parent="1" source="426" target="410">
                    <mxGeometry relative="1" as="geometry">
                        <mxPoint x="2268" y="402" as="sourcePoint"/>
                        <mxPoint x="2141" y="390" as="targetPoint"/>
                    </mxGeometry>
                </mxCell>
                <mxCell id="428" value="" style="endArrow=none;html=1;rounded=0;exitX=0.5;exitY=1;exitDx=0;exitDy=0;entryX=0.5;entryY=0;entryDx=0;entryDy=0;" edge="1" parent="1" source="425" target="410">
                    <mxGeometry relative="1" as="geometry">
                        <mxPoint x="2249" y="402" as="sourcePoint"/>
                        <mxPoint x="2141" y="390" as="targetPoint"/>
                    </mxGeometry>
                </mxCell>
                <mxCell id="429" style="edgeStyle=none;html=1;endArrow=none;endFill=0;" edge="1" parent="1" source="430" target="538">
                    <mxGeometry relative="1" as="geometry"/>
                </mxCell>
                <mxCell id="430" value="product_id" style="ellipse;whiteSpace=wrap;html=1;align=center;fontStyle=0;rounded=1;fillColor=#a20025;fontColor=#ffffff;strokeColor=#6F0000;" vertex="1" parent="1">
                    <mxGeometry x="2505" y="619" width="100" height="40" as="geometry"/>
                </mxCell>
                <mxCell id="431" value="&lt;div&gt;orders_id&lt;/div&gt;" style="ellipse;whiteSpace=wrap;html=1;align=center;fontStyle=4;rounded=1;fillColor=#60a917;fontColor=#ffffff;strokeColor=#2D7600;" vertex="1" parent="1">
                    <mxGeometry x="2593" y="752" width="100" height="40" as="geometry"/>
                </mxCell>
                <mxCell id="432" value="" style="endArrow=none;html=1;rounded=0;exitX=0.5;exitY=1;exitDx=0;exitDy=0;entryX=0;entryY=0.5;entryDx=0;entryDy=0;" edge="1" parent="1" target="431">
                    <mxGeometry relative="1" as="geometry">
                        <mxPoint x="2474" y="761" as="sourcePoint"/>
                        <mxPoint x="2630" y="843" as="targetPoint"/>
                    </mxGeometry>
                </mxCell>
                <mxCell id="433" value="" style="endArrow=none;html=1;rounded=0;entryX=0;entryY=0;entryDx=0;entryDy=0;exitX=0.5;exitY=1;exitDx=0;exitDy=0;" edge="1" parent="1" target="435">
                    <mxGeometry relative="1" as="geometry">
                        <mxPoint x="2474" y="761" as="sourcePoint"/>
                        <mxPoint x="3339" y="791.67" as="targetPoint"/>
                    </mxGeometry>
                </mxCell>
                <mxCell id="435" value="&lt;div&gt;customer_id&lt;/div&gt;" style="ellipse;whiteSpace=wrap;html=1;align=center;fontStyle=4;rounded=1;fillColor=#a20025;fontColor=#ffffff;strokeColor=#6F0000;" vertex="1" parent="1">
                    <mxGeometry x="2521" y="893" width="100" height="40" as="geometry"/>
                </mxCell>
                <mxCell id="436" value="supplied by" style="shape=rhombus;perimeter=rhombusPerimeter;whiteSpace=wrap;html=1;align=center;rounded=1;" vertex="1" parent="1">
                    <mxGeometry x="2165" y="134" width="120" height="60" as="geometry"/>
                </mxCell>
                <mxCell id="437" value="" style="endArrow=none;html=1;rounded=1;entryX=0.5;entryY=1;entryDx=0;entryDy=0;exitX=0.5;exitY=0;exitDx=0;exitDy=0;" edge="1" parent="1" source="436" target="415">
                    <mxGeometry relative="1" as="geometry">
                        <mxPoint x="2437" y="144" as="sourcePoint"/>
                        <mxPoint x="2486.64" y="210" as="targetPoint"/>
                    </mxGeometry>
                </mxCell>
                <mxCell id="438" value="1" style="resizable=0;html=1;align=right;verticalAlign=bottom;rounded=1;" connectable="0" vertex="1" parent="437">
                    <mxGeometry x="1" relative="1" as="geometry">
                        <mxPoint x="-5" y="20" as="offset"/>
                    </mxGeometry>
                </mxCell>
                <mxCell id="439" value="" style="endArrow=none;html=1;rounded=1;exitX=0.5;exitY=1;exitDx=0;exitDy=0;entryX=0.5;entryY=0;entryDx=0;entryDy=0;" edge="1" parent="1" source="436" target="410">
                    <mxGeometry relative="1" as="geometry">
                        <mxPoint x="2307" y="293" as="sourcePoint"/>
                        <mxPoint x="2257" y="281" as="targetPoint"/>
                    </mxGeometry>
                </mxCell>
                <mxCell id="440" value="N" style="resizable=0;html=1;align=right;verticalAlign=bottom;rounded=1;" connectable="0" vertex="1" parent="439">
                    <mxGeometry x="1" relative="1" as="geometry">
                        <mxPoint x="-4" y="-25" as="offset"/>
                    </mxGeometry>
                </mxCell>
                <mxCell id="441" value="supplier_id" style="ellipse;whiteSpace=wrap;html=1;align=center;fontStyle=4;rounded=1;fillColor=#60a917;fontColor=#ffffff;strokeColor=#2D7600;" vertex="1" parent="1">
                    <mxGeometry x="1999" y="70" width="100" height="40" as="geometry"/>
                </mxCell>
                <mxCell id="442" value="" style="endArrow=none;html=1;rounded=0;entryX=1;entryY=0.5;entryDx=0;entryDy=0;exitX=0;exitY=0.75;exitDx=0;exitDy=0;" edge="1" parent="1" source="415" target="441">
                    <mxGeometry relative="1" as="geometry">
                        <mxPoint x="2295" y="68" as="sourcePoint"/>
                        <mxPoint x="2253" y="78" as="targetPoint"/>
                    </mxGeometry>
                </mxCell>
                <mxCell id="443" value="Each product has&lt;br&gt; a unique supplier" style="text;html=1;align=center;verticalAlign=middle;resizable=0;points=[];autosize=1;strokeColor=none;fillColor=none;" vertex="1" parent="1">
                    <mxGeometry x="2034" y="143.5" width="114" height="41" as="geometry"/>
                </mxCell>
                <mxCell id="444" value="" style="endArrow=none;html=1;rounded=0;exitX=0.5;exitY=0;exitDx=0;exitDy=0;entryX=0.582;entryY=1.02;entryDx=0;entryDy=0;entryPerimeter=0;" edge="1" parent="1" source="408" target="445">
                    <mxGeometry relative="1" as="geometry">
                        <mxPoint x="2099" y="1283.1699999999998" as="sourcePoint"/>
                        <mxPoint x="2099" y="1320.84" as="targetPoint"/>
                    </mxGeometry>
                </mxCell>
                <mxCell id="445" value="&lt;div&gt;customer_id&lt;/div&gt;" style="ellipse;whiteSpace=wrap;html=1;align=center;fontStyle=4;rounded=1;fillColor=#60a917;fontColor=#ffffff;strokeColor=#2D7600;" vertex="1" parent="1">
                    <mxGeometry x="2196" y="1011" width="100" height="40" as="geometry"/>
                </mxCell>
                <mxCell id="446" value="Each product has&lt;br&gt; a unique category" style="text;html=1;align=center;verticalAlign=middle;resizable=0;points=[];autosize=1;strokeColor=none;fillColor=none;" vertex="1" parent="1">
                    <mxGeometry x="2507" y="316" width="115" height="41" as="geometry"/>
                </mxCell>
                <mxCell id="449" value="" style="endArrow=none;html=1;rounded=0;entryX=0.5;entryY=1;entryDx=0;entryDy=0;exitX=0.5;exitY=0;exitDx=0;exitDy=0;" edge="1" parent="1" source="538" target="410">
                    <mxGeometry relative="1" as="geometry">
                        <mxPoint x="2225" y="490" as="sourcePoint"/>
                        <mxPoint x="2262" y="562" as="targetPoint"/>
                    </mxGeometry>
                </mxCell>
                <mxCell id="450" value="N" style="resizable=0;html=1;align=right;verticalAlign=bottom;" connectable="0" vertex="1" parent="449">
                    <mxGeometry x="1" relative="1" as="geometry">
                        <mxPoint x="-3" y="23" as="offset"/>
                    </mxGeometry>
                </mxCell>
                <mxCell id="451" value="&lt;div&gt;An order can have&lt;/div&gt;&lt;div&gt;many products and a&lt;/div&gt;&lt;div&gt;product can be in multiple&lt;/div&gt;&lt;div&gt;orders&lt;br&gt;&lt;/div&gt;" style="text;html=1;align=center;verticalAlign=middle;resizable=0;points=[];autosize=1;strokeColor=none;fillColor=none;" vertex="1" parent="1">
                    <mxGeometry x="2541" y="530" width="159" height="70" as="geometry"/>
                </mxCell>
                <mxCell id="452" value="supplier_id" style="ellipse;whiteSpace=wrap;html=1;align=center;fontStyle=4;rounded=1;fillColor=#a20025;fontColor=#ffffff;strokeColor=#6F0000;" vertex="1" parent="1">
                    <mxGeometry x="2041" y="268" width="100" height="40" as="geometry"/>
                </mxCell>
                <mxCell id="453" value="" style="endArrow=none;html=1;rounded=0;exitX=1;exitY=0.5;exitDx=0;exitDy=0;entryX=0.5;entryY=0;entryDx=0;entryDy=0;" edge="1" parent="1" source="452" target="410">
                    <mxGeometry relative="1" as="geometry">
                        <mxPoint x="2268" y="526" as="sourcePoint"/>
                        <mxPoint x="2175" y="514" as="targetPoint"/>
                    </mxGeometry>
                </mxCell>
                <mxCell id="454" style="edgeStyle=none;html=1;entryX=0.401;entryY=0.037;entryDx=0;entryDy=0;entryPerimeter=0;endArrow=none;endFill=0;" edge="1" parent="1" source="455" target="413">
                    <mxGeometry relative="1" as="geometry"/>
                </mxCell>
                <mxCell id="455" value="transaction_id" style="ellipse;whiteSpace=wrap;html=1;align=center;fontStyle=4;rounded=1;fillColor=#60a917;fontColor=#ffffff;strokeColor=#2D7600;" vertex="1" parent="1">
                    <mxGeometry x="2819" y="621" width="101" height="40" as="geometry"/>
                </mxCell>
                <mxCell id="456" value="&lt;div&gt;1 order can be paid by card ONLY&lt;br&gt;Assumption: the customer who&lt;br&gt;made the order is the one who pays&lt;/div&gt;" style="text;html=1;align=center;verticalAlign=middle;resizable=0;points=[];autosize=1;strokeColor=none;fillColor=none;" vertex="1" parent="1">
                    <mxGeometry x="2591" y="646" width="209" height="55" as="geometry"/>
                </mxCell>
                <mxCell id="457" value="&lt;u&gt;ad_id&lt;/u&gt;" style="ellipse;whiteSpace=wrap;html=1;align=center;rounded=1;fillColor=#60a917;fontColor=#ffffff;strokeColor=#2D7600;" vertex="1" parent="1">
                    <mxGeometry x="1621" y="308" width="100" height="40" as="geometry"/>
                </mxCell>
                <mxCell id="458" value="" style="endArrow=none;html=1;rounded=0;exitX=1;exitY=1;exitDx=0;exitDy=0;entryX=0.5;entryY=0;entryDx=0;entryDy=0;" edge="1" parent="1" source="457" target="417">
                    <mxGeometry relative="1" as="geometry">
                        <mxPoint x="1823" y="342" as="sourcePoint"/>
                        <mxPoint x="1749" y="329.9999999999999" as="targetPoint"/>
                    </mxGeometry>
                </mxCell>
                <mxCell id="459" value="has" style="shape=rhombus;perimeter=rhombusPerimeter;whiteSpace=wrap;html=1;align=center;rounded=1;" vertex="1" parent="1">
                    <mxGeometry x="1874" y="360" width="120" height="60" as="geometry"/>
                </mxCell>
                <mxCell id="460" value="" style="endArrow=none;html=1;rounded=0;entryX=0;entryY=0.5;entryDx=0;entryDy=0;exitX=1;exitY=0.5;exitDx=0;exitDy=0;" edge="1" parent="1" source="459" target="410">
                    <mxGeometry relative="1" as="geometry">
                        <mxPoint x="2024" y="358" as="sourcePoint"/>
                        <mxPoint x="2184" y="358" as="targetPoint"/>
                    </mxGeometry>
                </mxCell>
                <mxCell id="461" value="1" style="resizable=0;html=1;align=right;verticalAlign=bottom;" connectable="0" vertex="1" parent="460">
                    <mxGeometry x="1" relative="1" as="geometry">
                        <mxPoint x="-14" as="offset"/>
                    </mxGeometry>
                </mxCell>
                <mxCell id="462" value="" style="endArrow=none;html=1;rounded=0;entryX=1;entryY=0.5;entryDx=0;entryDy=0;exitX=0;exitY=0.5;exitDx=0;exitDy=0;" edge="1" parent="1" source="459" target="417">
                    <mxGeometry relative="1" as="geometry">
                        <mxPoint x="1865" y="389.9999999999998" as="sourcePoint"/>
                        <mxPoint x="2078" y="403.0000000000001" as="targetPoint"/>
                    </mxGeometry>
                </mxCell>
                <mxCell id="463" value="1" style="resizable=0;html=1;align=right;verticalAlign=bottom;" connectable="0" vertex="1" parent="462">
                    <mxGeometry x="1" relative="1" as="geometry">
                        <mxPoint x="13" as="offset"/>
                    </mxGeometry>
                </mxCell>
                <mxCell id="464" value="One product can &lt;br&gt;have one ad" style="text;html=1;align=center;verticalAlign=middle;resizable=0;points=[];autosize=1;strokeColor=none;fillColor=none;" vertex="1" parent="1">
                    <mxGeometry x="1883" y="316.5" width="108" height="41" as="geometry"/>
                </mxCell>
                <mxCell id="465" value="product_id" style="ellipse;whiteSpace=wrap;html=1;align=center;fontStyle=4;rounded=1;fillColor=#a20025;fontColor=#ffffff;strokeColor=#6F0000;" vertex="1" parent="1">
                    <mxGeometry x="1691.5" y="260" width="100" height="40" as="geometry"/>
                </mxCell>
                <mxCell id="466" value="" style="endArrow=none;html=1;rounded=0;entryX=0.5;entryY=1;entryDx=0;entryDy=0;exitX=0.5;exitY=0;exitDx=0;exitDy=0;" edge="1" parent="1" source="417" target="465">
                    <mxGeometry relative="1" as="geometry">
                        <mxPoint x="2065" y="491" as="sourcePoint"/>
                        <mxPoint x="2225" y="491" as="targetPoint"/>
                    </mxGeometry>
                </mxCell>
                <mxCell id="467" style="edgeStyle=none;html=1;entryX=0;entryY=0.25;entryDx=0;entryDy=0;endArrow=none;endFill=0;" edge="1" parent="1" source="468" target="413">
                    <mxGeometry relative="1" as="geometry"/>
                </mxCell>
                <mxCell id="468" value="order_id" style="ellipse;whiteSpace=wrap;html=1;align=center;fontStyle=4;rounded=1;fillColor=#a20025;fontColor=#ffffff;strokeColor=#6F0000;" vertex="1" parent="1">
                    <mxGeometry x="2808" y="682" width="100" height="40" as="geometry"/>
                </mxCell>
                <mxCell id="469" value="is child of" style="shape=rhombus;perimeter=rhombusPerimeter;whiteSpace=wrap;html=1;align=center;rounded=1;shadow=0;" vertex="1" parent="1">
                    <mxGeometry x="2843" y="452" width="120" height="60" as="geometry"/>
                </mxCell>
                <mxCell id="470" value="cat_parent_id" style="ellipse;whiteSpace=wrap;html=1;align=center;fontStyle=4;rounded=1;fillColor=#a20025;fontColor=#ffffff;strokeColor=#6F0000;" vertex="1" parent="1">
                    <mxGeometry x="2716" y="260" width="100" height="40" as="geometry"/>
                </mxCell>
                <mxCell id="471" value="" style="endArrow=none;html=1;rounded=0;entryX=0.5;entryY=0;entryDx=0;entryDy=0;exitX=0.5;exitY=1;exitDx=0;exitDy=0;" edge="1" parent="1" source="470" target="416">
                    <mxGeometry relative="1" as="geometry">
                        <mxPoint x="2641" y="449" as="sourcePoint"/>
                        <mxPoint x="2953" y="365" as="targetPoint"/>
                    </mxGeometry>
                </mxCell>
                <mxCell id="472" value="&lt;div&gt;Many categories can be the&lt;/div&gt;&lt;div&gt;child of one category&lt;br&gt;&lt;/div&gt;" style="text;html=1;align=center;verticalAlign=middle;resizable=0;points=[];autosize=1;strokeColor=none;fillColor=none;" vertex="1" parent="1">
                    <mxGeometry x="2923" y="397" width="160" height="41" as="geometry"/>
                </mxCell>
                <mxCell id="473" value="" style="endArrow=none;html=1;rounded=0;exitX=0;exitY=0.5;exitDx=0;exitDy=0;entryX=0.5;entryY=1;entryDx=0;entryDy=0;" edge="1" parent="1" source="469" target="416">
                    <mxGeometry relative="1" as="geometry">
                        <mxPoint x="2368" y="741" as="sourcePoint"/>
                        <mxPoint x="2441" y="741" as="targetPoint"/>
                        <Array as="points">
                            <mxPoint x="2825" y="482"/>
                        </Array>
                    </mxGeometry>
                </mxCell>
                <mxCell id="474" value="N" style="resizable=0;html=1;align=right;verticalAlign=bottom;" connectable="0" vertex="1" parent="473">
                    <mxGeometry x="1" relative="1" as="geometry">
                        <mxPoint x="-9" y="28" as="offset"/>
                    </mxGeometry>
                </mxCell>
                <mxCell id="475" value="" style="endArrow=none;html=1;rounded=0;entryX=0.5;entryY=0;entryDx=0;entryDy=0;exitX=1;exitY=0.5;exitDx=0;exitDy=0;" edge="1" parent="1" source="416" target="469">
                    <mxGeometry relative="1" as="geometry">
                        <mxPoint x="2944" y="393" as="sourcePoint"/>
                        <mxPoint x="2792" y="742" as="targetPoint"/>
                        <Array as="points">
                            <mxPoint x="2902" y="390"/>
                        </Array>
                    </mxGeometry>
                </mxCell>
                <mxCell id="476" value="1" style="resizable=0;html=1;align=right;verticalAlign=bottom;" connectable="0" vertex="1" parent="475">
                    <mxGeometry x="1" relative="1" as="geometry">
                        <mxPoint x="-11" y="-69" as="offset"/>
                    </mxGeometry>
                </mxCell>
                <mxCell id="477" style="edgeStyle=none;html=1;exitX=1;exitY=0.5;exitDx=0;exitDy=0;entryX=0.5;entryY=0;entryDx=0;entryDy=0;strokeColor=default;endArrow=none;endFill=0;" edge="1" parent="1" source="478" target="410">
                    <mxGeometry relative="1" as="geometry"/>
                </mxCell>
                <mxCell id="478" value="product_id" style="ellipse;whiteSpace=wrap;html=1;align=center;fontStyle=4;rounded=1;fillColor=#60a917;fontColor=#ffffff;strokeColor=#2D7600;" vertex="1" parent="1">
                    <mxGeometry x="2016" y="320" width="100" height="40" as="geometry"/>
                </mxCell>
                <mxCell id="479" style="edgeStyle=none;html=1;exitX=0;exitY=1;exitDx=0;exitDy=0;entryX=0.5;entryY=0;entryDx=0;entryDy=0;strokeColor=default;endArrow=none;endFill=0;" edge="1" parent="1" source="480" target="410">
                    <mxGeometry relative="1" as="geometry"/>
                </mxCell>
                <mxCell id="480" value="description" style="ellipse;whiteSpace=wrap;html=1;align=center;fontStyle=0;rounded=1;fillColor=#1ba1e2;fontColor=#ffffff;strokeColor=#006EAF;" vertex="1" parent="1">
                    <mxGeometry x="2351" y="287" width="123" height="40" as="geometry"/>
                </mxCell>
                <mxCell id="481" style="edgeStyle=none;html=1;exitX=0;exitY=0.5;exitDx=0;exitDy=0;entryX=0.5;entryY=0;entryDx=0;entryDy=0;strokeColor=default;endArrow=none;endFill=0;" edge="1" parent="1" source="482" target="410">
                    <mxGeometry relative="1" as="geometry"/>
                </mxCell>
                <mxCell id="482" value="price" style="ellipse;whiteSpace=wrap;html=1;align=center;fontStyle=0;rounded=1;fillColor=#1ba1e2;fontColor=#ffffff;strokeColor=#006EAF;" vertex="1" parent="1">
                    <mxGeometry x="2364" y="335" width="100" height="40" as="geometry"/>
                </mxCell>
                <mxCell id="483" style="edgeStyle=none;html=1;exitX=0.5;exitY=1;exitDx=0;exitDy=0;entryX=0.5;entryY=0;entryDx=0;entryDy=0;strokeColor=default;endArrow=none;endFill=0;" edge="1" parent="1" source="484" target="416">
                    <mxGeometry relative="1" as="geometry"/>
                </mxCell>
                <mxCell id="484" value="cat_name" style="ellipse;whiteSpace=wrap;html=1;align=center;fontStyle=0;rounded=1;fillColor=#1ba1e2;fontColor=#ffffff;strokeColor=#006EAF;" vertex="1" parent="1">
                    <mxGeometry x="2823" y="260" width="100" height="40" as="geometry"/>
                </mxCell>
                <mxCell id="485" style="edgeStyle=none;html=1;exitX=0;exitY=0.5;exitDx=0;exitDy=0;entryX=0.5;entryY=0;entryDx=0;entryDy=0;strokeColor=default;endArrow=none;endFill=0;" edge="1" parent="1" source="486" target="416">
                    <mxGeometry relative="1" as="geometry"/>
                </mxCell>
                <mxCell id="486" value="cat_desc" style="ellipse;whiteSpace=wrap;html=1;align=center;fontStyle=0;rounded=1;fillColor=#1ba1e2;fontColor=#ffffff;strokeColor=#006EAF;" vertex="1" parent="1">
                    <mxGeometry x="2864" y="320" width="100" height="40" as="geometry"/>
                </mxCell>
                <mxCell id="487" style="edgeStyle=none;html=1;exitX=0.5;exitY=0;exitDx=0;exitDy=0;entryX=0.5;entryY=1;entryDx=0;entryDy=0;strokeColor=default;endArrow=none;endFill=0;" edge="1" parent="1" source="488">
                    <mxGeometry relative="1" as="geometry">
                        <mxPoint x="2474" y="761" as="targetPoint"/>
                    </mxGeometry>
                </mxCell>
                <mxCell id="488" value="&lt;div&gt;orders_status&lt;/div&gt;" style="ellipse;whiteSpace=wrap;html=1;align=center;fontStyle=0;rounded=1;fillColor=#1ba1e2;fontColor=#ffffff;strokeColor=#006EAF;" vertex="1" parent="1">
                    <mxGeometry x="2407" y="911" width="100" height="40" as="geometry"/>
                </mxCell>
                <mxCell id="489" style="edgeStyle=none;html=1;exitX=0.5;exitY=0;exitDx=0;exitDy=0;entryX=0.139;entryY=0.7;entryDx=0;entryDy=0;strokeColor=default;endArrow=none;endFill=0;entryPerimeter=0;" edge="1" parent="1" source="490" target="538">
                    <mxGeometry relative="1" as="geometry">
                        <mxPoint x="2474" y="761" as="targetPoint"/>
                    </mxGeometry>
                </mxCell>
                <mxCell id="490" value="&lt;div&gt;total_amount&lt;/div&gt;" style="ellipse;whiteSpace=wrap;html=1;align=center;fontStyle=4;rounded=1;fillColor=#1ba1e2;fontColor=#ffffff;strokeColor=#006EAF;" vertex="1" parent="1">
                    <mxGeometry x="2278" y="839" width="100" height="40" as="geometry"/>
                </mxCell>
                <mxCell id="491" value="&lt;div&gt;order_date&lt;/div&gt;" style="ellipse;whiteSpace=wrap;html=1;align=center;fontStyle=4;rounded=1;fillColor=#1ba1e2;fontColor=#ffffff;strokeColor=#006EAF;" vertex="1" parent="1">
                    <mxGeometry x="2230" y="729" width="100" height="40" as="geometry"/>
                </mxCell>
                <mxCell id="492" style="edgeStyle=none;html=1;entryX=0;entryY=0;entryDx=0;entryDy=0;endArrow=none;endFill=0;" edge="1" parent="1" source="493" target="538">
                    <mxGeometry relative="1" as="geometry"/>
                </mxCell>
                <mxCell id="493" value="quantity_of_product" style="ellipse;whiteSpace=wrap;html=1;align=center;fontStyle=0;rounded=1;fillColor=#1ba1e2;fontColor=#ffffff;strokeColor=#006EAF;" vertex="1" parent="1">
                    <mxGeometry x="2272" y="642" width="126" height="40" as="geometry"/>
                </mxCell>
                <mxCell id="494" style="edgeStyle=none;html=1;entryX=1;entryY=0.75;entryDx=0;entryDy=0;endArrow=none;endFill=0;" edge="1" parent="1" source="495" target="410">
                    <mxGeometry relative="1" as="geometry"/>
                </mxCell>
                <mxCell id="495" value="&lt;div&gt;discount&lt;/div&gt;" style="ellipse;whiteSpace=wrap;html=1;align=center;fontStyle=0;rounded=1;fillColor=#1ba1e2;fontColor=#ffffff;strokeColor=#006EAF;" vertex="1" parent="1">
                    <mxGeometry x="2362" y="398" width="100" height="40" as="geometry"/>
                </mxCell>
                <mxCell id="496" style="edgeStyle=none;html=1;entryX=0.5;entryY=0;entryDx=0;entryDy=0;strokeColor=default;endArrow=none;endFill=0;exitX=0.5;exitY=1;exitDx=0;exitDy=0;" edge="1" parent="1" source="497" target="415">
                    <mxGeometry relative="1" as="geometry">
                        <mxPoint x="2172" y="-23" as="sourcePoint"/>
                    </mxGeometry>
                </mxCell>
                <mxCell id="497" value="name" style="ellipse;whiteSpace=wrap;html=1;align=center;fontStyle=0;rounded=1;fillColor=#1ba1e2;fontColor=#ffffff;strokeColor=#006EAF;" vertex="1" parent="1">
                    <mxGeometry x="1971.5" y="-76" width="100" height="40" as="geometry"/>
                </mxCell>
                <mxCell id="498" style="edgeStyle=none;html=1;exitX=1;exitY=1;exitDx=0;exitDy=0;entryX=0.5;entryY=0;entryDx=0;entryDy=0;strokeColor=default;endArrow=none;endFill=0;" edge="1" parent="1" source="499" target="415">
                    <mxGeometry relative="1" as="geometry"/>
                </mxCell>
                <mxCell id="499" value="contact_number" style="ellipse;whiteSpace=wrap;html=1;align=center;fontStyle=0;rounded=1;fillColor=#1ba1e2;fontColor=#ffffff;strokeColor=#006EAF;" vertex="1" parent="1">
                    <mxGeometry x="1965" y="3" width="100" height="40" as="geometry"/>
                </mxCell>
                <mxCell id="500" value="email" style="ellipse;whiteSpace=wrap;html=1;align=center;fontStyle=0;rounded=1;fillColor=#1ba1e2;fontColor=#ffffff;strokeColor=#006EAF;" vertex="1" parent="1">
                    <mxGeometry x="2078" y="-116" width="100" height="40" as="geometry"/>
                </mxCell>
                <mxCell id="501" value="ad_url" style="ellipse;whiteSpace=wrap;html=1;align=center;fontStyle=0;rounded=1;fillColor=#1ba1e2;fontColor=#ffffff;strokeColor=#006EAF;" vertex="1" parent="1">
                    <mxGeometry x="1757" y="308" width="100" height="40" as="geometry"/>
                </mxCell>
                <mxCell id="502" value="" style="endArrow=none;html=1;rounded=0;exitX=0;exitY=1;exitDx=0;exitDy=0;entryX=0.5;entryY=0;entryDx=0;entryDy=0;" edge="1" parent="1" source="501" target="417">
                    <mxGeometry relative="1" as="geometry">
                        <mxPoint x="1902" y="369.5" as="sourcePoint"/>
                        <mxPoint x="1859" y="337.5000000000002" as="targetPoint"/>
                    </mxGeometry>
                </mxCell>
                <mxCell id="503" style="edgeStyle=none;html=1;exitX=0;exitY=1;exitDx=0;exitDy=0;entryX=0.5;entryY=0;entryDx=0;entryDy=0;strokeColor=default;fontSize=10;endArrow=none;endFill=0;" edge="1" parent="1" source="504" target="408">
                    <mxGeometry relative="1" as="geometry"/>
                </mxCell>
                <mxCell id="504" value="first_name" style="ellipse;whiteSpace=wrap;html=1;align=center;fontStyle=0;rounded=1;fillColor=#1ba1e2;fontColor=#ffffff;strokeColor=#006EAF;" vertex="1" parent="1">
                    <mxGeometry x="2401" y="1063" width="100" height="40" as="geometry"/>
                </mxCell>
                <mxCell id="505" style="edgeStyle=none;html=1;exitX=0;exitY=0.5;exitDx=0;exitDy=0;strokeColor=default;fontSize=10;endArrow=none;endFill=0;" edge="1" parent="1" source="506">
                    <mxGeometry relative="1" as="geometry">
                        <mxPoint x="2278" y="1226" as="targetPoint"/>
                    </mxGeometry>
                </mxCell>
                <mxCell id="506" value="email" style="ellipse;whiteSpace=wrap;html=1;align=center;fontStyle=0;rounded=1;fillColor=#1ba1e2;fontColor=#ffffff;strokeColor=#006EAF;" vertex="1" parent="1">
                    <mxGeometry x="2370" y="1215" width="100" height="40" as="geometry"/>
                </mxCell>
                <mxCell id="507" style="edgeStyle=none;html=1;exitX=1;exitY=0.5;exitDx=0;exitDy=0;entryX=0.5;entryY=0;entryDx=0;entryDy=0;strokeColor=default;fontSize=10;endArrow=none;endFill=0;" edge="1" parent="1" source="508" target="408">
                    <mxGeometry relative="1" as="geometry"/>
                </mxCell>
                <mxCell id="508" value="contact_number" style="ellipse;whiteSpace=wrap;html=1;align=center;fontStyle=0;rounded=1;fillColor=#1ba1e2;fontColor=#ffffff;strokeColor=#006EAF;" vertex="1" parent="1">
                    <mxGeometry x="2062" y="1020.5" width="97" height="45" as="geometry"/>
                </mxCell>
                <mxCell id="509" style="edgeStyle=none;html=1;exitX=0;exitY=0.5;exitDx=0;exitDy=0;entryX=0.5;entryY=0;entryDx=0;entryDy=0;strokeColor=default;fontSize=10;endArrow=none;endFill=0;" edge="1" parent="1" source="510" target="408">
                    <mxGeometry relative="1" as="geometry"/>
                </mxCell>
                <mxCell id="510" value="last_name" style="ellipse;whiteSpace=wrap;html=1;align=center;fontStyle=0;rounded=1;fillColor=#1ba1e2;fontColor=#ffffff;strokeColor=#006EAF;" vertex="1" parent="1">
                    <mxGeometry x="2437" y="1140" width="100" height="40" as="geometry"/>
                </mxCell>
                <mxCell id="511" style="edgeStyle=none;html=1;entryX=0.5;entryY=0;entryDx=0;entryDy=0;endArrow=none;endFill=0;" edge="1" parent="1" source="512" target="413">
                    <mxGeometry relative="1" as="geometry"/>
                </mxCell>
                <mxCell id="512" value="transaction_time" style="ellipse;whiteSpace=wrap;html=1;align=center;fontStyle=0;rounded=1;fillColor=#1ba1e2;fontColor=#ffffff;strokeColor=#006EAF;" vertex="1" parent="1">
                    <mxGeometry x="2890" y="560" width="100" height="40" as="geometry"/>
                </mxCell>
                <mxCell id="513" style="edgeStyle=none;html=1;endArrow=none;endFill=0;" edge="1" parent="1" source="514" target="413">
                    <mxGeometry relative="1" as="geometry"/>
                </mxCell>
                <mxCell id="514" value="payment_type" style="ellipse;whiteSpace=wrap;html=1;align=center;fontStyle=0;rounded=1;fillColor=#1ba1e2;fontColor=#ffffff;strokeColor=#006EAF;" vertex="1" parent="1">
                    <mxGeometry x="3017" y="564" width="100" height="40" as="geometry"/>
                </mxCell>
                <mxCell id="515" style="edgeStyle=none;html=1;entryX=0.75;entryY=0;entryDx=0;entryDy=0;endArrow=none;endFill=0;" edge="1" parent="1" source="516" target="413">
                    <mxGeometry relative="1" as="geometry"/>
                </mxCell>
                <mxCell id="516" value="total_value" style="ellipse;whiteSpace=wrap;html=1;align=center;fontStyle=0;rounded=1;fillColor=#1ba1e2;fontColor=#ffffff;strokeColor=#006EAF;" vertex="1" parent="1">
                    <mxGeometry x="3089" y="624" width="100" height="40" as="geometry"/>
                </mxCell>
                <mxCell id="517" value="stock" style="ellipse;whiteSpace=wrap;html=1;align=center;fontStyle=0;rounded=1;fillColor=#1ba1e2;fontColor=#ffffff;strokeColor=#006EAF;" vertex="1" parent="1">
                    <mxGeometry x="2232" y="217" width="100" height="40" as="geometry"/>
                </mxCell>
                <mxCell id="518" value="Delivery" style="whiteSpace=wrap;html=1;align=center;rounded=1;" vertex="1" parent="1">
                    <mxGeometry x="1577.5" y="716" width="100" height="40" as="geometry"/>
                </mxCell>
                <mxCell id="519" style="edgeStyle=none;html=1;exitX=0.5;exitY=0;exitDx=0;exitDy=0;entryX=0.75;entryY=1;entryDx=0;entryDy=0;strokeColor=default;fontSize=10;endArrow=none;endFill=0;" edge="1" parent="1" source="520" target="518">
                    <mxGeometry relative="1" as="geometry"/>
                </mxCell>
                <mxCell id="520" value="shipping_cost" style="ellipse;whiteSpace=wrap;html=1;align=center;fontStyle=0;rounded=1;fillColor=#1ba1e2;fontColor=#ffffff;strokeColor=#006EAF;" vertex="1" parent="1">
                    <mxGeometry x="1636" y="839" width="100" height="40" as="geometry"/>
                </mxCell>
                <mxCell id="521" style="edgeStyle=none;html=1;exitX=0.5;exitY=0;exitDx=0;exitDy=0;entryX=0.5;entryY=1;entryDx=0;entryDy=0;strokeColor=default;fontSize=10;endArrow=none;endFill=0;" edge="1" parent="1" source="547" target="518">
                    <mxGeometry relative="1" as="geometry">
                        <mxPoint x="1582.8553390593274" y="795.8578643762692" as="sourcePoint"/>
                    </mxGeometry>
                </mxCell>
                <mxCell id="522" style="edgeStyle=none;html=1;endArrow=none;endFill=0;" edge="1" parent="1" source="523" target="413">
                    <mxGeometry relative="1" as="geometry"/>
                </mxCell>
                <mxCell id="523" value="payment_status" style="ellipse;whiteSpace=wrap;html=1;align=center;fontStyle=0;rounded=1;fillColor=#1ba1e2;fontColor=#ffffff;strokeColor=#006EAF;" vertex="1" parent="1">
                    <mxGeometry x="3112" y="715" width="100" height="40" as="geometry"/>
                </mxCell>
                <mxCell id="524" style="edgeStyle=none;html=1;endArrow=none;endFill=0;" edge="1" parent="1" source="525" target="408">
                    <mxGeometry relative="1" as="geometry"/>
                </mxCell>
                <mxCell id="525" value="&lt;div&gt;country&lt;/div&gt;" style="ellipse;whiteSpace=wrap;html=1;align=center;fontStyle=0;rounded=1;fillColor=#1ba1e2;fontColor=#ffffff;strokeColor=#006EAF;" vertex="1" parent="1">
                    <mxGeometry x="2253" y="1345.5" width="100" height="40" as="geometry"/>
                </mxCell>
                <mxCell id="526" style="edgeStyle=none;html=1;endArrow=none;endFill=0;" edge="1" parent="1" source="527" target="408">
                    <mxGeometry relative="1" as="geometry"/>
                </mxCell>
                <mxCell id="527" value="&lt;div&gt;unit&lt;/div&gt;" style="ellipse;whiteSpace=wrap;html=1;align=center;fontStyle=0;rounded=1;fillColor=#1ba1e2;fontColor=#ffffff;strokeColor=#006EAF;" vertex="1" parent="1">
                    <mxGeometry x="1953" y="1137.5" width="100" height="40" as="geometry"/>
                </mxCell>
                <mxCell id="528" style="edgeStyle=none;html=1;entryX=0;entryY=0.5;entryDx=0;entryDy=0;endArrow=none;endFill=0;" edge="1" parent="1" source="529" target="408">
                    <mxGeometry relative="1" as="geometry"/>
                </mxCell>
                <mxCell id="529" value="&lt;div&gt;city&lt;/div&gt;" style="ellipse;whiteSpace=wrap;html=1;align=center;fontStyle=0;rounded=1;fillColor=#1ba1e2;fontColor=#ffffff;strokeColor=#006EAF;" vertex="1" parent="1">
                    <mxGeometry x="1951" y="1203.5" width="100" height="40" as="geometry"/>
                </mxCell>
                <mxCell id="530" style="edgeStyle=none;html=1;entryX=0.25;entryY=1;entryDx=0;entryDy=0;endArrow=none;endFill=0;" edge="1" parent="1" source="531" target="408">
                    <mxGeometry relative="1" as="geometry"/>
                </mxCell>
                <mxCell id="531" value="&lt;div&gt;street&lt;/div&gt;" style="ellipse;whiteSpace=wrap;html=1;align=center;fontStyle=0;rounded=1;fillColor=#1ba1e2;fontColor=#ffffff;strokeColor=#006EAF;" vertex="1" parent="1">
                    <mxGeometry x="2021" y="1342.5" width="100" height="40" as="geometry"/>
                </mxCell>
                <mxCell id="532" style="edgeStyle=none;html=1;endArrow=none;endFill=0;" edge="1" parent="1" source="533" target="408">
                    <mxGeometry relative="1" as="geometry"/>
                </mxCell>
                <mxCell id="533" value="&lt;div&gt;block&lt;/div&gt;" style="ellipse;whiteSpace=wrap;html=1;align=center;fontStyle=0;rounded=1;fillColor=#1ba1e2;fontColor=#ffffff;strokeColor=#006EAF;" vertex="1" parent="1">
                    <mxGeometry x="2140" y="1367.5" width="100" height="40" as="geometry"/>
                </mxCell>
                <mxCell id="534" value="assume 1 customer only has 1 address" style="text;html=1;align=center;verticalAlign=middle;resizable=0;points=[];autosize=1;strokeColor=none;fillColor=none;" vertex="1" parent="1">
                    <mxGeometry x="2129" y="1424" width="227" height="26" as="geometry"/>
                </mxCell>
                <mxCell id="535" value="address_id" style="ellipse;whiteSpace=wrap;html=1;align=center;fontStyle=4;rounded=1;fillColor=#a20025;fontColor=#ffffff;strokeColor=#6F0000;" vertex="1" parent="1">
                    <mxGeometry x="2596" y="820" width="100" height="40" as="geometry"/>
                </mxCell>
                <mxCell id="536" style="edgeStyle=none;html=1;entryX=0;entryY=0.5;entryDx=0;entryDy=0;endArrow=none;endFill=0;" edge="1" parent="1" source="538" target="413">
                    <mxGeometry relative="1" as="geometry"/>
                </mxCell>
                <mxCell id="591" style="edgeStyle=none;html=1;endArrow=none;endFill=0;" edge="1" parent="1" source="538">
                    <mxGeometry relative="1" as="geometry">
                        <mxPoint x="2228" y="1211" as="targetPoint"/>
                    </mxGeometry>
                </mxCell>
                <mxCell id="538" value="Order" style="shape=rhombus;perimeter=rhombusPerimeter;whiteSpace=wrap;html=1;align=center;rounded=1;" vertex="1" parent="1">
                    <mxGeometry x="2414" y="705" width="120" height="60" as="geometry"/>
                </mxCell>
                <mxCell id="539" style="edgeStyle=none;html=1;entryX=0;entryY=1;entryDx=0;entryDy=0;endArrow=none;endFill=0;" edge="1" parent="1" source="540" target="408">
                    <mxGeometry relative="1" as="geometry"/>
                </mxCell>
                <mxCell id="540" value="&lt;div&gt;floor&lt;/div&gt;" style="ellipse;whiteSpace=wrap;html=1;align=center;fontStyle=0;rounded=1;fillColor=#1ba1e2;fontColor=#ffffff;strokeColor=#006EAF;" vertex="1" parent="1">
                    <mxGeometry x="1962" y="1275.5" width="100" height="40" as="geometry"/>
                </mxCell>
                <mxCell id="541" style="edgeStyle=none;html=1;endArrow=none;endFill=0;" edge="1" parent="1" source="542">
                    <mxGeometry relative="1" as="geometry">
                        <mxPoint x="2228.3318481445312" y="1212.4092864990234" as="targetPoint"/>
                    </mxGeometry>
                </mxCell>
                <mxCell id="542" value="date_of_birth" style="ellipse;whiteSpace=wrap;html=1;align=center;fontStyle=0;rounded=1;fillColor=#1ba1e2;fontColor=#ffffff;strokeColor=#006EAF;" vertex="1" parent="1">
                    <mxGeometry x="2010" y="1079.5" width="100" height="40" as="geometry"/>
                </mxCell>
                <mxCell id="543" value="Courier" style="whiteSpace=wrap;html=1;align=center;rounded=1;" vertex="1" parent="1">
                    <mxGeometry x="1934.5" y="716" width="100" height="40" as="geometry"/>
                </mxCell>
                <mxCell id="544" value="1" style="edgeStyle=none;html=1;endArrow=none;endFill=0;" edge="1" parent="1" source="546" target="543">
                    <mxGeometry relative="1" as="geometry"/>
                </mxCell>
                <mxCell id="545" value="N" style="edgeStyle=none;html=1;endArrow=none;endFill=0;" edge="1" parent="1" source="546" target="518">
                    <mxGeometry relative="1" as="geometry"/>
                </mxCell>
                <mxCell id="546" value="is shipped by" style="shape=rhombus;perimeter=rhombusPerimeter;whiteSpace=wrap;html=1;align=center;rounded=1;" vertex="1" parent="1">
                    <mxGeometry x="1746.5" y="710" width="120" height="60" as="geometry"/>
                </mxCell>
                <mxCell id="547" value="courier_id" style="ellipse;whiteSpace=wrap;html=1;align=center;fontStyle=0;rounded=1;fillColor=#a20025;fontColor=#ffffff;strokeColor=#6F0000;" vertex="1" parent="1">
                    <mxGeometry x="1507" y="833" width="100" height="40" as="geometry"/>
                </mxCell>
                <mxCell id="548" style="edgeStyle=none;html=1;entryX=0;entryY=0.5;entryDx=0;entryDy=0;endArrow=none;endFill=0;" edge="1" parent="1" source="549" target="518">
                    <mxGeometry relative="1" as="geometry"/>
                </mxCell>
                <mxCell id="549" value="delivery_id" style="ellipse;whiteSpace=wrap;html=1;align=center;fontStyle=4;rounded=1;fillColor=#60a917;fontColor=#ffffff;strokeColor=#2D7600;" vertex="1" parent="1">
                    <mxGeometry x="1433" y="693" width="100" height="40" as="geometry"/>
                </mxCell>
                <mxCell id="550" style="edgeStyle=none;html=1;entryX=0.25;entryY=0;entryDx=0;entryDy=0;endArrow=none;endFill=0;" edge="1" parent="1" source="551" target="518">
                    <mxGeometry relative="1" as="geometry"/>
                </mxCell>
                <mxCell id="551" value="delivery_time" style="ellipse;whiteSpace=wrap;html=1;align=center;fontStyle=0;rounded=1;fillColor=#1ba1e2;fontColor=#ffffff;strokeColor=#006EAF;" vertex="1" parent="1">
                    <mxGeometry x="1464" y="616" width="100" height="40" as="geometry"/>
                </mxCell>
                <mxCell id="552" style="edgeStyle=none;html=1;endArrow=none;endFill=0;" edge="1" parent="1" source="553" target="518">
                    <mxGeometry relative="1" as="geometry"/>
                </mxCell>
                <mxCell id="553" value="delivery_status" style="ellipse;whiteSpace=wrap;html=1;align=center;fontStyle=0;rounded=1;fillColor=#1ba1e2;fontColor=#ffffff;strokeColor=#006EAF;" vertex="1" parent="1">
                    <mxGeometry x="1433" y="765" width="100" height="40" as="geometry"/>
                </mxCell>
                <mxCell id="554" style="edgeStyle=none;html=1;entryX=0.875;entryY=1.007;entryDx=0;entryDy=0;entryPerimeter=0;endArrow=none;endFill=0;" edge="1" parent="1" source="555" target="518">
                    <mxGeometry relative="1" as="geometry"/>
                </mxCell>
                <mxCell id="555" value="delivery_type" style="ellipse;whiteSpace=wrap;html=1;align=center;fontStyle=0;rounded=1;fillColor=#1ba1e2;fontColor=#ffffff;strokeColor=#006EAF;" vertex="1" parent="1">
                    <mxGeometry x="1718" y="780" width="100" height="40" as="geometry"/>
                </mxCell>
                <mxCell id="556" style="edgeStyle=none;html=1;entryX=0.5;entryY=0;entryDx=0;entryDy=0;endArrow=none;endFill=0;" edge="1" parent="1" source="557" target="543">
                    <mxGeometry relative="1" as="geometry"/>
                </mxCell>
                <mxCell id="557" value="courier_id" style="ellipse;whiteSpace=wrap;html=1;align=center;fontStyle=4;rounded=1;fillColor=#60a917;fontColor=#ffffff;strokeColor=#2D7600;" vertex="1" parent="1">
                    <mxGeometry x="1930.5" y="595" width="100" height="40" as="geometry"/>
                </mxCell>
                <mxCell id="558" style="edgeStyle=none;html=1;entryX=0.75;entryY=0;entryDx=0;entryDy=0;endArrow=none;endFill=0;" edge="1" parent="1" source="559" target="543">
                    <mxGeometry relative="1" as="geometry"/>
                </mxCell>
                <mxCell id="559" value="first_name" style="ellipse;whiteSpace=wrap;html=1;align=center;fontStyle=0;rounded=1;fillColor=#1ba1e2;fontColor=#ffffff;strokeColor=#006EAF;" vertex="1" parent="1">
                    <mxGeometry x="2041.5" y="632" width="100" height="40" as="geometry"/>
                </mxCell>
                <mxCell id="560" value="" style="edgeStyle=none;html=1;endArrow=none;endFill=0;" edge="1" parent="1" source="561" target="543">
                    <mxGeometry relative="1" as="geometry"/>
                </mxCell>
                <mxCell id="561" value="last_name" style="ellipse;whiteSpace=wrap;html=1;align=center;fontStyle=0;rounded=1;fillColor=#1ba1e2;fontColor=#ffffff;strokeColor=#006EAF;" vertex="1" parent="1">
                    <mxGeometry x="2067.5" y="706" width="100" height="40" as="geometry"/>
                </mxCell>
                <mxCell id="562" style="edgeStyle=none;html=1;entryX=0.847;entryY=1.017;entryDx=0;entryDy=0;entryPerimeter=0;endArrow=none;endFill=0;" edge="1" parent="1" source="563" target="543">
                    <mxGeometry relative="1" as="geometry"/>
                </mxCell>
                <mxCell id="563" value="contact_number" style="ellipse;whiteSpace=wrap;html=1;align=center;fontStyle=0;rounded=1;fillColor=#1ba1e2;fontColor=#ffffff;strokeColor=#006EAF;" vertex="1" parent="1">
                    <mxGeometry x="2070.5" y="762" width="100" height="40" as="geometry"/>
                </mxCell>
                <mxCell id="564" style="edgeStyle=none;html=1;entryX=0.877;entryY=0.979;entryDx=0;entryDy=0;entryPerimeter=0;endArrow=none;endFill=0;" edge="1" parent="1" source="565" target="410">
                    <mxGeometry relative="1" as="geometry"/>
                </mxCell>
                <mxCell id="565" value="&lt;div&gt;discounted_price&lt;/div&gt;" style="ellipse;whiteSpace=wrap;html=1;align=center;fontStyle=0;rounded=1;fillColor=#1ba1e2;fontColor=#ffffff;strokeColor=#006EAF;dashed=1;dashPattern=8 8;" vertex="1" parent="1">
                    <mxGeometry x="2285" y="446" width="100" height="40" as="geometry"/>
                </mxCell>
                <mxCell id="566" style="edgeStyle=none;html=1;endArrow=none;endFill=0;" edge="1" parent="1" source="567" target="408">
                    <mxGeometry relative="1" as="geometry"/>
                </mxCell>
                <mxCell id="567" value="&lt;div&gt;zipcode&lt;/div&gt;" style="ellipse;whiteSpace=wrap;html=1;align=center;fontStyle=0;rounded=1;fillColor=#1ba1e2;fontColor=#ffffff;strokeColor=#006EAF;" vertex="1" parent="1">
                    <mxGeometry x="2364" y="1298" width="100" height="40" as="geometry"/>
                </mxCell>
                <mxCell id="568" style="edgeStyle=none;html=1;entryX=1;entryY=0.5;entryDx=0;entryDy=0;endArrow=none;endFill=0;" edge="1" parent="1" source="569" target="415">
                    <mxGeometry relative="1" as="geometry"/>
                </mxCell>
                <mxCell id="569" value="&lt;div&gt;country&lt;/div&gt;" style="ellipse;whiteSpace=wrap;html=1;align=center;fontStyle=0;rounded=1;fillColor=#1ba1e2;fontColor=#ffffff;strokeColor=#006EAF;" vertex="1" parent="1">
                    <mxGeometry x="2421" y="89" width="100" height="40" as="geometry"/>
                </mxCell>
                <mxCell id="570" style="edgeStyle=none;html=1;endArrow=none;endFill=0;" edge="1" parent="1" source="571">
                    <mxGeometry relative="1" as="geometry">
                        <mxPoint x="2221.7565511067705" y="48.6166144476997" as="targetPoint"/>
                    </mxGeometry>
                </mxCell>
                <mxCell id="571" value="&lt;div&gt;unit&lt;/div&gt;" style="ellipse;whiteSpace=wrap;html=1;align=center;fontStyle=0;rounded=1;fillColor=#1ba1e2;fontColor=#ffffff;strokeColor=#006EAF;" vertex="1" parent="1">
                    <mxGeometry x="2189" y="-143" width="100" height="40" as="geometry"/>
                </mxCell>
                <mxCell id="572" style="edgeStyle=none;html=1;endArrow=none;endFill=0;" edge="1" parent="1" source="573">
                    <mxGeometry relative="1" as="geometry">
                        <mxPoint x="2226.088419596354" y="47.75025431315089" as="targetPoint"/>
                    </mxGeometry>
                </mxCell>
                <mxCell id="573" value="&lt;div&gt;city&lt;/div&gt;" style="ellipse;whiteSpace=wrap;html=1;align=center;fontStyle=0;rounded=1;fillColor=#1ba1e2;fontColor=#ffffff;strokeColor=#006EAF;" vertex="1" parent="1">
                    <mxGeometry x="2289" y="-116" width="100" height="40" as="geometry"/>
                </mxCell>
                <mxCell id="574" style="edgeStyle=none;html=1;endArrow=none;endFill=0;" edge="1" parent="1" source="575">
                    <mxGeometry relative="1" as="geometry">
                        <mxPoint x="2232.153008355035" y="46.88389417860253" as="targetPoint"/>
                    </mxGeometry>
                </mxCell>
                <mxCell id="575" value="&lt;div&gt;street&lt;/div&gt;" style="ellipse;whiteSpace=wrap;html=1;align=center;fontStyle=0;rounded=1;fillColor=#1ba1e2;fontColor=#ffffff;strokeColor=#006EAF;" vertex="1" parent="1">
                    <mxGeometry x="2416" y="-22" width="100" height="40" as="geometry"/>
                </mxCell>
                <mxCell id="576" style="edgeStyle=none;html=1;entryX=1;entryY=0;entryDx=0;entryDy=0;endArrow=none;endFill=0;" edge="1" parent="1" source="577" target="415">
                    <mxGeometry relative="1" as="geometry"/>
                </mxCell>
                <mxCell id="577" value="&lt;div&gt;block&lt;/div&gt;" style="ellipse;whiteSpace=wrap;html=1;align=center;fontStyle=0;rounded=1;fillColor=#1ba1e2;fontColor=#ffffff;strokeColor=#006EAF;" vertex="1" parent="1">
                    <mxGeometry x="2434" y="36" width="100" height="40" as="geometry"/>
                </mxCell>
                <mxCell id="578" style="edgeStyle=none;html=1;endArrow=none;endFill=0;" edge="1" parent="1" source="579">
                    <mxGeometry relative="1" as="geometry">
                        <mxPoint x="2224.3422037760415" y="50.34930080837671" as="targetPoint"/>
                    </mxGeometry>
                </mxCell>
                <mxCell id="579" value="&lt;div&gt;floor&lt;/div&gt;" style="ellipse;whiteSpace=wrap;html=1;align=center;fontStyle=0;rounded=1;fillColor=#1ba1e2;fontColor=#ffffff;strokeColor=#006EAF;" vertex="1" parent="1">
                    <mxGeometry x="2370" y="-71" width="100" height="40" as="geometry"/>
                </mxCell>
                <mxCell id="580" style="edgeStyle=none;html=1;entryX=1;entryY=1;entryDx=0;entryDy=0;endArrow=none;endFill=0;" edge="1" parent="1" source="581" target="415">
                    <mxGeometry relative="1" as="geometry"/>
                </mxCell>
                <mxCell id="581" value="&lt;div&gt;zipcode&lt;/div&gt;" style="ellipse;whiteSpace=wrap;html=1;align=center;fontStyle=0;rounded=1;fillColor=#1ba1e2;fontColor=#ffffff;strokeColor=#006EAF;" vertex="1" parent="1">
                    <mxGeometry x="2344" y="140" width="100" height="40" as="geometry"/>
                </mxCell>
                <mxCell id="582" style="edgeStyle=none;html=1;endArrow=none;endFill=0;" edge="1" parent="1" source="583" target="413">
                    <mxGeometry relative="1" as="geometry"/>
                </mxCell>
                <mxCell id="583" value="card_number" style="ellipse;whiteSpace=wrap;html=1;align=center;fontStyle=0;rounded=1;fillColor=#1ba1e2;fontColor=#ffffff;strokeColor=#006EAF;" vertex="1" parent="1">
                    <mxGeometry x="3095" y="812" width="100" height="40" as="geometry"/>
                </mxCell>
                <mxCell id="584" style="edgeStyle=none;html=1;entryX=0.5;entryY=1;entryDx=0;entryDy=0;endArrow=none;endFill=0;" edge="1" parent="1" source="585" target="413">
                    <mxGeometry relative="1" as="geometry"/>
                </mxCell>
                <mxCell id="585" value="expiry_date" style="ellipse;whiteSpace=wrap;html=1;align=center;fontStyle=0;rounded=1;fillColor=#1ba1e2;fontColor=#ffffff;strokeColor=#006EAF;" vertex="1" parent="1">
                    <mxGeometry x="2976" y="846" width="100" height="40" as="geometry"/>
                </mxCell>
                <mxCell id="586" style="edgeStyle=none;html=1;endArrow=none;endFill=0;" edge="1" parent="1" source="587" target="413">
                    <mxGeometry relative="1" as="geometry"/>
                </mxCell>
                <mxCell id="587" value="cvv" style="ellipse;whiteSpace=wrap;html=1;align=center;fontStyle=0;rounded=1;fillColor=#1ba1e2;fontColor=#ffffff;strokeColor=#006EAF;" vertex="1" parent="1">
                    <mxGeometry x="2857" y="812" width="100" height="40" as="geometry"/>
                </mxCell>
                <mxCell id="588" style="edgeStyle=none;html=1;entryX=0;entryY=0.75;entryDx=0;entryDy=0;endArrow=none;endFill=0;" edge="1" parent="1" source="589" target="410">
                    <mxGeometry relative="1" as="geometry"/>
                </mxCell>
                <mxCell id="589" value="rating" style="ellipse;whiteSpace=wrap;html=1;align=center;fontStyle=0;rounded=1;fillColor=#1ba1e2;fontColor=#ffffff;strokeColor=#006EAF;" vertex="1" parent="1">
                    <mxGeometry x="2014" y="403" width="100" height="40" as="geometry"/>
                </mxCell>
            </root>
        </mxGraphModel>
    </diagram>
</mxfile>